<?xml version="1.0" encoding="UTF-8"?>
<!DOCTYPE svg PUBLIC "-//W3C//DTD SVG 1.1//EN" "http://www.w3.org/Graphics/SVG/1.1/DTD/svg11.dtd">
<svg xmlns="http://www.w3.org/2000/svg" version="1.1" width="346px" height="290px" style="shape-rendering:geometricPrecision; text-rendering:geometricPrecision; image-rendering:optimizeQuality; fill-rule:evenodd; clip-rule:evenodd" xmlns:xlink="http://www.w3.org/1999/xlink">
<g><path style="opacity:0.338" fill="#0f0f0f" d="M 180.5,-0.5 C 180.833,-0.5 181.167,-0.5 181.5,-0.5C 181.833,0.833333 182.167,0.833333 182.5,-0.5C 184.167,-0.5 185.833,-0.5 187.5,-0.5C 187.833,0.833333 188.167,0.833333 188.5,-0.5C 188.833,-0.5 189.167,-0.5 189.5,-0.5C 189.5,0.833333 190.167,1.5 191.5,1.5C 194.28,3.32109 196.946,5.32109 199.5,7.5C 200.072,9.25542 200.906,10.9221 202,12.5C 203.666,11.6598 203.833,12.1598 202.5,14C 204.002,17.3519 205.668,19.8519 207.5,21.5C 206.167,21.8333 206.167,22.1667 207.5,22.5C 207.631,23.3764 207.298,24.0431 206.5,24.5C 203.812,23.9951 201.645,22.6618 200,20.5C 198.619,22.6349 197.619,24.9682 197,27.5C 196.086,26.3463 195.253,26.513 194.5,28C 195.747,29.4936 195.747,30.9936 194.5,32.5C 192.66,31.3298 190.994,30.3298 189.5,29.5C 190.833,28.8333 190.833,28.1667 189.5,27.5C 189.5,26.8333 189.167,26.5 188.5,26.5C 186.407,25.9424 184.907,24.6091 184,22.5C 183.667,22.8333 183.333,23.1667 183,23.5C 183,22.1667 183,20.8333 183,19.5C 179.697,20.1572 176.531,21.1572 173.5,22.5C 172.833,21.1667 172.167,21.1667 171.5,22.5C 169.352,22.3894 169.019,23.056 170.5,24.5C 169.965,26.2705 169.131,26.6039 168,25.5C 167.348,28.7086 168.182,31.3752 170.5,33.5C 171.053,35.6569 172.053,35.4903 173.5,33C 175.218,32.654 176.885,32.154 178.5,31.5C 180.69,33.524 183.023,35.3573 185.5,37C 182.409,38.3456 180.076,40.5123 178.5,43.5C 177.481,42.3128 176.314,41.3128 175,40.5C 174.383,41.4491 174.549,42.2825 175.5,43C 174.551,43.6172 173.718,43.4506 173,42.5C 172.833,42.8333 172.667,43.1667 172.5,43.5C 173.981,44.4803 175.315,45.647 176.5,47C 175.975,47.6924 175.308,48.1924 174.5,48.5C 172.52,47.5161 170.853,46.1827 169.5,44.5C 167.717,45.3482 167.217,46.6815 168,48.5C 169.019,49.6872 170.186,50.6872 171.5,51.5C 172.452,53.0453 172.785,54.712 172.5,56.5C 168.456,56.5653 166.456,54.8987 166.5,51.5C 164.224,49.6489 161.891,47.9823 159.5,46.5C 162.52,43.6454 165.687,40.9787 169,38.5C 169.774,36.597 169.44,34.9304 168,33.5C 165.904,34.7155 166.071,35.5488 168.5,36C 167.944,36.3826 167.611,36.8826 167.5,37.5C 166.833,37.1667 166.167,36.8333 165.5,36.5C 164.746,34.4947 163.579,33.828 162,34.5C 161.411,32.1367 159.911,31.1367 157.5,31.5C 157.66,33.1992 157.494,34.8659 157,36.5C 156.667,35.8333 156.333,35.1667 156,34.5C 154.644,37.3289 153.144,39.9955 151.5,42.5C 150.833,42.5 150.5,42.8333 150.5,43.5C 149.833,43.5 149.5,43.8333 149.5,44.5C 148.833,44.5 148.5,44.8333 148.5,45.5C 147.167,45.8333 147.167,46.1667 148.5,46.5C 149.833,46.8333 151.167,47.1667 152.5,47.5C 152.5,47.8333 152.5,48.1667 152.5,48.5C 151.314,49.7054 151.314,51.0387 152.5,52.5C 151.732,53.2625 151.232,54.2625 151,55.5C 150.667,55.1667 150.333,54.8333 150,54.5C 149.392,56.1545 148.892,57.8211 148.5,59.5C 149.695,63.2861 150.362,63.2861 150.5,59.5C 156.208,59.4924 156.541,59.9924 151.5,61C 153.5,61.3333 155.5,61.6667 157.5,62C 156.366,63.016 156.699,63.6827 158.5,64C 157.107,66.6833 155.774,66.85 154.5,64.5C 154.213,65.2003 153.88,65.8669 153.5,66.5C 152.5,66.5 151.5,66.5 150.5,66.5C 150.5,65.8333 150.167,65.5 149.5,65.5C 148.833,65.5 148.167,65.5 147.5,65.5C 146.5,64.1667 145.5,64.1667 144.5,65.5C 143.833,65.5 143.5,65.8333 143.5,66.5C 141.235,66.5594 140.902,65.7261 142.5,64C 141.862,59.4549 141.195,54.9549 140.5,50.5C 140.5,50.1667 140.5,49.8333 140.5,49.5C 140.5,49.1667 140.5,48.8333 140.5,48.5C 140.833,48.5 141.167,48.5 141.5,48.5C 143.199,48.6602 144.866,48.4935 146.5,48C 144.942,47.79 143.609,47.29 142.5,46.5C 142.167,45.1667 141.833,45.1667 141.5,46.5C 139.938,46.7329 138.605,47.3995 137.5,48.5C 139.935,39.4702 143.601,31.1369 148.5,23.5C 148.291,22.914 147.957,22.414 147.5,22C 148.833,21.3333 150.167,20.6667 151.5,20C 150.5,19.6667 149.5,19.3333 148.5,19C 153.209,18.3952 157.376,16.5619 161,13.5C 163.787,14.5174 166.62,14.6841 169.5,14C 167.833,13.6667 166.167,13.3333 164.5,13C 167.095,12.7744 169.595,12.2744 172,11.5C 172.333,11.8333 172.667,12.1667 173,12.5C 173.346,10.7818 173.846,9.11511 174.5,7.5C 174.291,6.91395 173.957,6.41395 173.5,6C 177.602,5.63302 179.935,3.46635 180.5,-0.5 Z M 183.5,5.5 C 182.833,5.5 182.167,5.5 181.5,5.5C 181.786,3.06732 182.452,3.06732 183.5,5.5 Z M 183.5,5.5 C 184.5,5.83333 185.167,6.5 185.5,7.5C 184.833,7.5 184.167,7.5 183.5,7.5C 183.5,6.83333 183.5,6.16667 183.5,5.5 Z M 191.5,6.5 C 190.233,7.08703 189.233,7.08703 188.5,6.5C 189.614,5.2241 190.614,5.2241 191.5,6.5 Z M 191.5,6.5 C 193.027,6.42702 194.027,7.09368 194.5,8.5C 194.988,10.9317 195.988,12.4317 197.5,13C 196.586,15.873 195.086,16.0397 193,13.5C 192.536,14.0944 192.369,14.7611 192.5,15.5C 191.788,13.4735 190.455,11.3068 188.5,9C 190.119,8.76445 191.119,7.93112 191.5,6.5 Z M 186.5,9.5 C 187.338,9.84171 187.672,10.5084 187.5,11.5C 184.993,12.9987 183.826,12.332 184,9.5C 184.977,10.7736 185.811,10.7736 186.5,9.5 Z M 196.5,17.5 C 197.756,17.4614 198.756,17.9614 199.5,19C 198.002,19.5847 197.002,19.0847 196.5,17.5 Z M 187.5,18.5 C 188.833,18.5 189.5,19.1667 189.5,20.5C 188.5,20.1667 187.833,19.5 187.5,18.5 Z M 165.5,36.5 C 166.167,36.8333 166.833,37.1667 167.5,37.5C 165.259,38.7288 163.259,40.3955 161.5,42.5C 160.893,42.3764 160.56,42.0431 160.5,41.5C 159.778,41.9175 159.278,42.5842 159,43.5C 158.586,43.0426 158.086,42.7093 157.5,42.5C 156.561,44.0534 155.394,45.3867 154,46.5C 152.251,46.2517 151.418,45.2517 151.5,43.5C 152.833,43.1667 152.833,42.8333 151.5,42.5C 153.144,39.9955 154.644,37.3289 156,34.5C 156.333,35.1667 156.667,35.8333 157,36.5C 157.494,34.8659 157.66,33.1992 157.5,31.5C 159.911,31.1367 161.411,32.1367 162,34.5C 163.579,33.828 164.746,34.4947 165.5,36.5 Z"/></g>
<g><path style="opacity:0.035" fill="#000000" d="M 191.5,0.5 C 192.833,1.16667 192.833,1.16667 191.5,0.5 Z"/></g>
<g><path style="opacity:0.018" fill="#000000" d="M 181.5,6.5 C 181.5,6.16667 181.5,5.83333 181.5,5.5C 182.167,5.5 182.833,5.5 183.5,5.5C 183.5,6.16667 183.5,6.83333 183.5,7.5C 183.167,7.5 182.833,7.5 182.5,7.5C 182.5,6.83333 182.167,6.5 181.5,6.5 Z"/></g>
<g><path style="opacity:0.039" fill="#000000" d="M 199.5,6.5 C 200.833,7.16667 200.833,7.16667 199.5,6.5 Z"/></g>
<g><path style="opacity:0.004" fill="#000000" d="M 151.5,16.5 C 152.833,17.1667 152.833,17.1667 151.5,16.5 Z"/></g>
<g><path style="opacity:0.008" fill="#000000" d="M 207.5,21.5 C 208.833,22.1667 208.833,22.1667 207.5,21.5 Z"/></g>
<g><path style="opacity:0.006" fill="#000000" d="M 171.5,22.5 C 172.167,22.5 172.833,22.5 173.5,22.5C 172.833,23.8333 172.167,23.8333 171.5,22.5 Z"/></g>
<g><path style="opacity:0.01" fill="#000000" d="M 188.5,26.5 C 189.167,26.5 189.5,26.8333 189.5,27.5C 189.5,28.1667 189.5,28.8333 189.5,29.5C 187.618,28.779 187.285,27.779 188.5,26.5 Z"/></g>
<g><path style="opacity:0.016" fill="#000000" d="M 235.5,42.5 C 236.833,43.1667 236.833,43.1667 235.5,42.5 Z"/></g>
<g><path style="opacity:0.031" fill="#000000" d="M 236.5,49.5 C 237.833,50.1667 237.833,50.1667 236.5,49.5 Z"/></g>
<g><path style="opacity:0.016" fill="#000000" d="M 235.5,50.5 C 235.833,50.5 236.167,50.5 236.5,50.5C 236.315,51.1701 235.981,51.1701 235.5,50.5 Z"/></g>
<g><path style="opacity:0.008" fill="#000000" d="M 232.5,53.5 C 233.833,54.1667 233.833,54.1667 232.5,53.5 Z"/></g>
<g><path style="opacity:0.008" fill="#000000" d="M 232.5,55.5 C 233.833,56.1667 233.833,56.1667 232.5,55.5 Z"/></g>
<g><path style="opacity:0.008" fill="#000000" d="M 258.5,55.5 C 257.833,56.1667 257.833,56.1667 258.5,55.5 Z"/></g>
<g><path style="opacity:0.004" fill="#000000" d="M 239.5,58.5 C 239.897,57.475 240.563,57.3083 241.5,58C 240.906,58.4643 240.239,58.631 239.5,58.5 Z"/></g>
<g><path style="opacity:0.012" fill="#000000" d="M 283.5,58.5 C 284.833,59.1667 284.833,59.1667 283.5,58.5 Z"/></g>
<g><path style="opacity:0.008" fill="#000000" d="M 267.5,60.5 C 267.103,61.525 266.437,61.6917 265.5,61C 266.094,60.5357 266.761,60.369 267.5,60.5 Z"/></g>
<g><path style="opacity:0.012" fill="#000000" d="M 270.5,61.5 C 270.103,62.525 269.437,62.6917 268.5,62C 269.094,61.5357 269.761,61.369 270.5,61.5 Z"/></g>
<g><path style="opacity:0.004" fill="#000000" d="M 288.5,61.5 C 289.833,62.1667 289.833,62.1667 288.5,61.5 Z"/></g>
<g><path style="opacity:0.004" fill="#000000" d="M 138.5,63.5 C 139.833,64.1667 139.833,64.1667 138.5,63.5 Z"/></g>
<g><path style="opacity:0.438" fill="#140f0e" d="M 283.5,59.5 C 285.167,60.1667 286.833,60.8333 288.5,61.5C 285.833,61.8333 285.833,62.1667 288.5,62.5C 288.953,63.4584 289.619,64.2917 290.5,65C 292.279,64.0209 293.945,64.3542 295.5,66C 294.549,66.7175 294.383,67.5509 295,68.5C 296.84,67.1669 297.34,67.3335 296.5,69C 297.705,70.3756 299.038,71.5423 300.5,72.5C 301.406,73.9649 302.739,74.9649 304.5,75.5C 305.386,76.325 305.719,77.325 305.5,78.5C 302.627,76.8969 299.627,75.5636 296.5,74.5C 296.027,73.0937 295.027,72.427 293.5,72.5C 293.5,71.8333 293.167,71.5 292.5,71.5C 291.833,70.1667 291.167,70.1667 290.5,71.5C 288.097,71.552 285.764,71.2186 283.5,70.5C 283.389,69.8826 283.056,69.3826 282.5,69C 278.888,67.85 275.222,67.0166 271.5,66.5C 271.5,65.5 271.5,64.5 271.5,63.5C 272.833,63.5 274.167,63.5 275.5,63.5C 274.07,62.4625 272.403,61.7959 270.5,61.5C 269.791,60.596 268.791,60.2627 267.5,60.5C 265.095,59.2318 262.428,58.5651 259.5,58.5C 259.737,57.209 259.404,56.209 258.5,55.5C 257.327,53.4959 255.66,51.9959 253.5,51C 254.641,50.2588 254.641,49.4255 253.5,48.5C 250.893,47.6816 248.226,47.1816 245.5,47C 250.354,43.8174 255.188,43.9841 260,47.5C 260.333,47.1667 260.667,46.8333 261,46.5C 267.127,51.1482 273.961,54.6482 281.5,57C 280.849,58.308 281.515,59.1414 283.5,59.5 Z M 275.5,63.5 C 277.103,63.3118 278.437,63.8118 279.5,65C 277.86,65.3478 276.527,64.8478 275.5,63.5 Z"/></g>
<g><path style="opacity:1" fill="#211e1e" d="M 263.5,69.5 C 263.5,68.8333 263.167,68.5 262.5,68.5C 262.351,67.448 262.517,66.448 263,65.5C 263.708,66.3805 264.542,67.0472 265.5,67.5C 265.5,67.8333 265.5,68.1667 265.5,68.5C 264.167,68.8333 264.167,69.1667 265.5,69.5C 265.5,70.1667 265.5,70.8333 265.5,71.5C 264.167,71.8333 264.167,72.1667 265.5,72.5C 265.5,73.1667 265.833,73.5 266.5,73.5C 266.5,74.1667 266.833,74.5 267.5,74.5C 267.5,75.1667 267.833,75.5 268.5,75.5C 268.738,77.4044 269.738,78.7377 271.5,79.5C 271.5,80.1667 271.833,80.5 272.5,80.5C 272.5,80.8333 272.5,81.1667 272.5,81.5C 272.5,82.1667 272.833,82.5 273.5,82.5C 273.5,82.8333 273.5,83.1667 273.5,83.5C 273.5,84.1667 273.833,84.5 274.5,84.5C 274.5,85.1667 274.833,85.5 275.5,85.5C 275.5,86.1667 275.833,86.5 276.5,86.5C 276.328,87.4916 276.662,88.1583 277.5,88.5C 277.5,88.8333 277.5,89.1667 277.5,89.5C 276.448,91.256 274.781,91.9227 272.5,91.5C 266.862,89.6747 261.196,88.008 255.5,86.5C 255.586,85.5041 255.252,84.6708 254.5,84C 255.833,83.6667 257.167,83.3333 258.5,83C 256.392,82.6401 254.392,81.9734 252.5,81C 252.833,80.6667 253.167,80.3333 253.5,80C 251.299,79.1751 249.466,79.6751 248,81.5C 247.228,80.1509 246.061,79.3176 244.5,79C 231.451,75.6538 218.451,72.4871 205.5,69.5C 207.185,66.6509 209.352,64.3176 212,62.5C 227.826,63.7707 243.66,65.104 259.5,66.5C 260.667,68.8333 261.833,71.1667 263,73.5C 263.49,72.2068 263.657,70.8734 263.5,69.5 Z"/></g>
<g><path style="opacity:0.004" fill="#000000" d="M 85.5,70.5 C 85.1034,71.525 84.4368,71.6917 83.5,71C 84.0944,70.5357 84.7611,70.369 85.5,70.5 Z"/></g>
<g><path style="opacity:1" fill="#212121" d="M 157.5,76.5 C 157.5,75.8333 157.167,75.5 156.5,75.5C 156.281,74.325 156.614,73.325 157.5,72.5C 167.652,71.7685 177.819,72.1018 188,73.5C 189.871,73.2906 191.038,72.2906 191.5,70.5C 190.627,68.5866 189.627,66.7533 188.5,65C 191.77,65.4631 194.77,66.7964 197.5,69C 198.451,69.7175 198.617,70.5509 198,71.5C 192.635,77.5103 186.135,80.3436 178.5,80C 171.45,79.014 164.45,77.8474 157.5,76.5 Z"/></g>
<g><path style="opacity:0.004" fill="#000000" d="M 300.5,71.5 C 301.833,72.1667 301.833,72.1667 300.5,71.5 Z"/></g>
<g><path style="opacity:0.238" fill="#0c0b0b" d="M 199.5,41.5 C 202.959,41.2228 206.625,41.5562 210.5,42.5C 211.5,42.8333 212.5,43.1667 213.5,43.5C 212.271,44.2811 210.938,44.7811 209.5,45C 214.069,44.982 218.403,45.8153 222.5,47.5C 224.441,45.6841 225.108,43.6841 224.5,41.5C 226.421,40.359 228.421,40.1923 230.5,41C 229.167,41.3333 227.833,41.6667 226.5,42C 229.587,42.2589 232.587,42.7589 235.5,43.5C 237.531,45.2492 237.865,47.2492 236.5,49.5C 235.833,49.5 235.5,49.8333 235.5,50.5C 233.621,50.3932 233.288,50.8932 234.5,52C 233.584,52.2784 232.918,52.7784 232.5,53.5C 231.566,54.5676 231.232,55.901 231.5,57.5C 234.127,58.0916 236.794,58.4249 239.5,58.5C 243.693,59.7135 248.026,60.8802 252.5,62C 250.833,62.3333 249.167,62.6667 247.5,63C 252.155,63.4992 256.821,63.6658 261.5,63.5C 261.216,65.4147 261.549,67.0813 262.5,68.5C 263.167,68.5 263.5,68.8333 263.5,69.5C 263.657,70.8734 263.49,72.2068 263,73.5C 261.833,71.1667 260.667,68.8333 259.5,66.5C 243.66,65.104 227.826,63.7707 212,62.5C 209.352,64.3176 207.185,66.6509 205.5,69.5C 218.451,72.4871 231.451,75.6538 244.5,79C 246.061,79.3176 247.228,80.1509 248,81.5C 249.466,79.6751 251.299,79.1751 253.5,80C 253.167,80.3333 252.833,80.6667 252.5,81C 254.392,81.9734 256.392,82.6401 258.5,83C 257.167,83.3333 255.833,83.6667 254.5,84C 255.252,84.6708 255.586,85.5041 255.5,86.5C 253.194,86.0074 250.861,85.6741 248.5,85.5C 244.929,87.3972 241.929,90.0639 239.5,93.5C 238.833,93.5 238.5,93.8333 238.5,94.5C 237.833,94.5 237.5,94.8333 237.5,95.5C 235.833,96.5 234.5,97.8333 233.5,99.5C 233.5,99.8333 233.5,100.167 233.5,100.5C 232.833,100.5 232.5,100.833 232.5,101.5C 231.711,101.783 231.044,102.283 230.5,103C 223.508,103.5 216.508,103.666 209.5,103.5C 210.833,101.833 212.167,100.167 213.5,98.5C 214.167,98.5 214.5,98.1667 214.5,97.5C 215.167,97.5 215.5,97.1667 215.5,96.5C 216.167,96.5 216.5,96.1667 216.5,95.5C 217.167,95.5 217.5,95.1667 217.5,94.5C 218.167,94.5 218.5,94.1667 218.5,93.5C 219.167,93.5 219.5,93.1667 219.5,92.5C 220.167,92.5 220.5,92.1667 220.5,91.5C 221.167,91.5 221.5,91.1667 221.5,90.5C 222.167,90.5 222.5,90.1667 222.5,89.5C 224.861,87.8061 226.861,85.8061 228.5,83.5C 228.833,84.8333 229.167,84.8333 229.5,83.5C 230.167,83.5 230.5,83.1667 230.5,82.5C 232.199,82.6602 233.866,82.4935 235.5,82C 227.252,79.1738 218.586,77.3405 209.5,76.5C 208.024,81.4155 205.691,85.9155 202.5,90C 203.451,90.7175 203.617,91.5509 203,92.5C 200.31,94.0269 198.143,96.0269 196.5,98.5C 195.957,98.44 195.624,98.1067 195.5,97.5C 200.221,91.3903 203.887,84.7236 206.5,77.5C 205.63,70.6934 203.963,70.1934 201.5,76C 200.552,76.4828 199.552,76.6495 198.5,76.5C 195.738,80.5422 193.238,84.8755 191,89.5C 190.023,90.7736 189.189,90.7736 188.5,89.5C 188.5,89.1667 188.5,88.8333 188.5,88.5C 189.338,88.1583 189.672,87.4916 189.5,86.5C 189.657,85.1266 189.49,83.7932 189,82.5C 188.667,83.1667 188.333,83.8333 188,84.5C 180.965,82.4751 173.798,81.3084 166.5,81C 169.08,82.1445 171.747,82.9778 174.5,83.5C 174.703,85.3904 174.037,86.8904 172.5,88C 169.518,88.7029 166.851,88.2029 164.5,86.5C 165.506,85.6043 165.506,84.9377 164.5,84.5C 164.5,83.8333 164.167,83.5 163.5,83.5C 163.5,83.1667 163.5,82.8333 163.5,82.5C 163.5,81.8333 163.167,81.5 162.5,81.5C 162.5,81.1667 162.5,80.8333 162.5,80.5C 161.458,79.2089 160.292,79.2089 159,80.5C 158.228,79.1509 157.061,78.3176 155.5,78C 156.416,77.7216 157.082,77.2216 157.5,76.5C 164.45,77.8474 171.45,79.014 178.5,80C 186.135,80.3436 192.635,77.5103 198,71.5C 198.617,70.5509 198.451,69.7175 197.5,69C 194.77,66.7964 191.77,65.4631 188.5,65C 189.627,66.7533 190.627,68.5866 191.5,70.5C 191.038,72.2906 189.871,73.2906 188,73.5C 177.819,72.1018 167.652,71.7685 157.5,72.5C 156.614,73.325 156.281,74.325 156.5,75.5C 153.312,72.2829 153.979,70.4496 158.5,70C 156.5,69.6667 154.5,69.3333 152.5,69C 153.056,68.6174 153.389,68.1174 153.5,67.5C 153.5,67.1667 153.5,66.8333 153.5,66.5C 153.88,65.8669 154.213,65.2003 154.5,64.5C 155.774,66.85 157.107,66.6833 158.5,64C 156.699,63.6827 156.366,63.016 157.5,62C 155.5,61.6667 153.5,61.3333 151.5,61C 156.541,59.9924 156.208,59.4924 150.5,59.5C 150.362,63.2861 149.695,63.2861 148.5,59.5C 154.116,58.8751 159.783,58.2085 165.5,57.5C 163.43,57.4477 161.097,57.281 158.5,57C 164.175,56.5359 164.508,55.8693 159.5,55C 160.328,54.0853 161.328,53.4186 162.5,53C 160.776,52.5518 160.109,51.7185 160.5,50.5C 157.904,51.4822 155.238,52.1489 152.5,52.5C 151.314,51.0387 151.314,49.7054 152.5,48.5C 153.833,48.1667 153.833,47.8333 152.5,47.5C 151.167,47.1667 149.833,46.8333 148.5,46.5C 148.5,46.1667 148.5,45.8333 148.5,45.5C 149.167,45.5 149.5,45.1667 149.5,44.5C 150.167,44.5 150.5,44.1667 150.5,43.5C 150.833,43.5 151.167,43.5 151.5,43.5C 151.418,45.2517 152.251,46.2517 154,46.5C 155.394,45.3867 156.561,44.0534 157.5,42.5C 158.086,42.7093 158.586,43.0426 159,43.5C 159.278,42.5842 159.778,41.9175 160.5,41.5C 160.56,42.0431 160.893,42.3764 161.5,42.5C 163.259,40.3955 165.259,38.7288 167.5,37.5C 167.611,36.8826 167.944,36.3826 168.5,36C 166.071,35.5488 165.904,34.7155 168,33.5C 169.44,34.9304 169.774,36.597 169,38.5C 165.687,40.9787 162.52,43.6454 159.5,46.5C 161.891,47.9823 164.224,49.6489 166.5,51.5C 166.456,54.8987 168.456,56.5653 172.5,56.5C 172.785,54.712 172.452,53.0453 171.5,51.5C 170.186,50.6872 169.019,49.6872 168,48.5C 167.217,46.6815 167.717,45.3482 169.5,44.5C 170.853,46.1827 172.52,47.5161 174.5,48.5C 175.308,48.1924 175.975,47.6924 176.5,47C 175.315,45.647 173.981,44.4803 172.5,43.5C 172.667,43.1667 172.833,42.8333 173,42.5C 173.718,43.4506 174.551,43.6172 175.5,43C 174.549,42.2825 174.383,41.4491 175,40.5C 176.314,41.3128 177.481,42.3128 178.5,43.5C 180.076,40.5123 182.409,38.3456 185.5,37C 183.023,35.3573 180.69,33.524 178.5,31.5C 176.885,32.154 175.218,32.654 173.5,33C 172.053,35.4903 171.053,35.6569 170.5,33.5C 171.09,32.234 171.59,30.9007 172,29.5C 172.333,30.1667 172.667,30.8333 173,31.5C 175.333,30.5 177.667,29.5 180,28.5C 180.333,29.5 180.667,30.5 181,31.5C 183.292,32.7899 185.292,34.4565 187,36.5C 187.414,36.0426 187.914,35.7093 188.5,35.5C 188.736,36.2472 189.07,37.0805 189.5,38C 192.316,37.3695 194.982,38.0362 197.5,40C 197.167,40.3333 196.833,40.6667 196.5,41C 197.448,41.4828 198.448,41.6495 199.5,41.5 Z M 182.5,41.5 C 183.568,42.4345 184.901,42.7678 186.5,42.5C 187.189,43.7736 188.023,43.7736 189,42.5C 189.284,44.8856 190.284,45.5523 192,44.5C 194.909,45.5268 196.909,46.8601 198,48.5C 198.873,48.2645 199.707,47.9312 200.5,47.5C 206.022,48.5428 211.522,49.5428 217,50.5C 218.857,49.8334 220.357,50.5001 221.5,52.5C 221.374,54.2794 221.708,56.2794 222.5,58.5C 219.837,58.8985 217.337,58.8985 215,58.5C 213.349,59.7424 211.515,60.5757 209.5,61C 205.74,63.2598 203.073,66.0932 201.5,69.5C 196.54,66.7554 192.54,63.7554 189.5,60.5C 186.933,60.7777 184.267,60.9444 181.5,61C 182.056,61.3826 182.389,61.8826 182.5,62.5C 181.243,63.6226 181.576,64.2893 183.5,64.5C 183.5,64.1667 183.5,63.8333 183.5,63.5C 185.144,63.8102 186.144,64.8102 186.5,66.5C 185.957,66.56 185.624,66.8933 185.5,67.5C 186.518,68.8524 187.851,69.8524 189.5,70.5C 189.333,70.8333 189.167,71.1667 189,71.5C 183.583,70.6911 178.083,70.1911 172.5,70C 174.595,69.4444 174.762,68.9444 173,68.5C 166.829,69.635 160.662,69.4684 154.5,68C 158.201,67.4104 161.868,67.077 165.5,67C 165.167,67.3333 164.833,67.6667 164.5,68C 166.167,68.6667 167.833,68.6667 169.5,68C 169.043,67.586 168.709,67.086 168.5,66.5C 172.218,65.731 173.218,63.731 171.5,60.5C 172.397,61.5981 173.23,61.5981 174,60.5C 174.333,57.5 174.667,54.5 175,51.5C 175.805,53.9011 176.638,53.7344 177.5,51C 176.701,49.2513 177.368,47.918 179.5,47C 178.584,46.7216 177.918,46.2216 177.5,45.5C 179.308,45.5086 180.975,45.0086 182.5,44C 181.226,43.0228 181.226,42.1894 182.5,41.5 Z M 191.5,79.5 C 192.527,78.1522 193.86,77.6522 195.5,78C 194.437,79.1882 193.103,79.6882 191.5,79.5 Z M 248.5,85.5 C 245.784,85.3215 243.117,84.8215 240.5,84C 243.482,83.2971 246.149,83.7971 248.5,85.5 Z M 189.5,86.5 C 184.216,87.4174 179.216,86.4174 174.5,83.5C 171.747,82.9778 169.08,82.1445 166.5,81C 173.798,81.3084 180.965,82.4751 188,84.5C 188.333,83.8333 188.667,83.1667 189,82.5C 189.49,83.7932 189.657,85.1266 189.5,86.5 Z M 223.5,95.5 C 225.288,94.3775 227.288,94.2109 229.5,95C 228.956,95.7172 228.289,96.2172 227.5,96.5C 226.432,95.5655 225.099,95.2322 223.5,95.5 Z M 226.5,97.5 C 224.372,98.6291 222.039,98.7958 219.5,98C 220,97.5 220.5,97 221,96.5C 222.699,97.4061 224.533,97.7394 226.5,97.5 Z"/></g>
<g><path style="opacity:0.008" fill="#000000" d="M 182.5,62.5 C 182.5,63.1667 182.833,63.5 183.5,63.5C 183.5,63.8333 183.5,64.1667 183.5,64.5C 181.576,64.2893 181.243,63.6226 182.5,62.5 Z"/></g>
<g><path style="opacity:0.004" fill="#000000" d="M 199.5,40.5 C 200.833,41.1667 200.833,41.1667 199.5,40.5 Z"/></g>
<g><path style="opacity:0.012" fill="#000000" d="M 183.5,40.5 C 184.167,40.5 184.833,40.5 185.5,40.5C 185.5,41.1667 185.833,41.5 186.5,41.5C 186.5,41.8333 186.5,42.1667 186.5,42.5C 184.901,42.7678 183.568,42.4345 182.5,41.5C 183.167,41.5 183.5,41.1667 183.5,40.5 Z"/></g>
<g><path style="opacity:1" fill="#b84522" d="M 283.5,70.5 C 285.764,71.2186 288.097,71.552 290.5,71.5C 291.167,71.5 291.833,71.5 292.5,71.5C 293.167,71.5 293.5,71.8333 293.5,72.5C 293.821,74.0481 294.821,74.7148 296.5,74.5C 295.737,75.2679 294.737,75.7679 293.5,76C 294.416,76.2784 295.082,76.7784 295.5,77.5C 292.454,77.8174 290.787,76.4841 290.5,73.5C 287.728,73.2413 285.395,72.2413 283.5,70.5 Z"/></g>
<g><path style="opacity:0.024" fill="#545554" d="M 297.5,75.5 C 298.833,76.1667 298.833,76.1667 297.5,75.5 Z"/></g>
<g><path style="opacity:1" fill="#f84c06" d="M 271.5,66.5 C 275.222,67.0166 278.888,67.85 282.5,69C 283.056,69.3826 283.389,69.8826 283.5,70.5C 285.395,72.2413 287.728,73.2413 290.5,73.5C 290.787,76.4841 292.454,77.8174 295.5,77.5C 305.537,80.1773 315.204,84.0107 324.5,89C 328.931,91.5955 332.931,94.7622 336.5,98.5C 336.137,99.1835 335.804,99.8501 335.5,100.5C 330.637,100.181 325.97,100.514 321.5,101.5C 321.5,101.833 321.5,102.167 321.5,102.5C 320.833,102.5 320.5,102.833 320.5,103.5C 320.5,103.833 320.5,104.167 320.5,104.5C 319.833,104.5 319.5,104.833 319.5,105.5C 319.167,105.5 318.833,105.5 318.5,105.5C 296.069,107.718 273.735,110.051 251.5,112.5C 247.252,112.303 243.252,111.303 239.5,109.5C 237.246,109.931 235.079,110.597 233,111.5C 230.815,111.079 228.649,110.579 226.5,110C 227.676,107.699 229.01,107.366 230.5,109C 233.596,109.927 235.93,108.927 237.5,106C 236.302,103.568 237.136,102.068 240,101.5C 244.35,102.172 244.517,103.339 240.5,105C 242.521,105.14 244.355,105.307 246,105.5C 246.5,105 247,104.5 247.5,104C 247.216,102.044 247.216,99.8771 247.5,97.5C 253.401,98.2572 258.734,96.9239 263.5,93.5C 264.086,93.7093 264.586,94.0426 265,94.5C 267.672,93.718 270.172,92.718 272.5,91.5C 274.781,91.9227 276.448,91.256 277.5,89.5C 278.833,89.1667 278.833,88.8333 277.5,88.5C 277.672,87.5084 277.338,86.8417 276.5,86.5C 275.833,86.5 275.5,86.1667 275.5,85.5C 274.833,85.5 274.5,85.1667 274.5,84.5C 273.833,84.5 273.5,84.1667 273.5,83.5C 274.833,83.1667 274.833,82.8333 273.5,82.5C 272.833,82.5 272.5,82.1667 272.5,81.5C 272.5,81.1667 272.5,80.8333 272.5,80.5C 271.833,80.5 271.5,80.1667 271.5,79.5C 271.262,77.5956 270.262,76.2623 268.5,75.5C 267.833,75.5 267.5,75.1667 267.5,74.5C 266.833,74.5 266.5,74.1667 266.5,73.5C 265.833,73.5 265.5,73.1667 265.5,72.5C 265.5,72.1667 265.5,71.8333 265.5,71.5C 265.5,70.8333 265.5,70.1667 265.5,69.5C 265.5,69.1667 265.5,68.8333 265.5,68.5C 265.5,68.1667 265.5,67.8333 265.5,67.5C 267.735,67.7947 269.735,67.4614 271.5,66.5 Z"/></g>
<g><path style="opacity:0.01" fill="#000000" d="M 230.5,82.5 C 229.833,82.5 229.5,82.8333 229.5,83.5C 229.167,83.5 228.833,83.5 228.5,83.5C 228.389,82.8826 228.056,82.3826 227.5,82C 228.749,81.2599 229.749,81.4265 230.5,82.5 Z"/></g>
<g><path style="opacity:0.506" fill="#0c0b0b" d="M 141.5,46.5 C 141.833,46.5 142.167,46.5 142.5,46.5C 143.609,47.29 144.942,47.79 146.5,48C 144.866,48.4935 143.199,48.6602 141.5,48.5C 141.167,47.1667 140.833,47.1667 140.5,48.5C 140.5,48.8333 140.5,49.1667 140.5,49.5C 139.167,49.8333 139.167,50.1667 140.5,50.5C 141.195,54.9549 141.862,59.4549 142.5,64C 140.902,65.7261 141.235,66.5594 143.5,66.5C 144.167,66.5 144.5,66.1667 144.5,65.5C 145.5,65.5 146.5,65.5 147.5,65.5C 148.167,66.8333 148.833,66.8333 149.5,65.5C 150.167,65.5 150.5,65.8333 150.5,66.5C 151.209,67.404 152.209,67.7373 153.5,67.5C 153.389,68.1174 153.056,68.6174 152.5,69C 154.5,69.3333 156.5,69.6667 158.5,70C 153.979,70.4496 153.312,72.2829 156.5,75.5C 157.167,75.5 157.5,75.8333 157.5,76.5C 157.082,77.2216 156.416,77.7216 155.5,78C 157.061,78.3176 158.228,79.1509 159,80.5C 160.292,79.2089 161.458,79.2089 162.5,80.5C 161.167,80.8333 161.167,81.1667 162.5,81.5C 163.167,81.5 163.5,81.8333 163.5,82.5C 162.167,82.8333 162.167,83.1667 163.5,83.5C 164.167,83.5 164.5,83.8333 164.5,84.5C 165.506,84.9377 165.506,85.6043 164.5,86.5C 162.494,84.8267 160.494,83.16 158.5,81.5C 157.833,81.6667 157.167,81.8333 156.5,82C 156.07,82.9195 155.736,83.7528 155.5,84.5C 142.111,78.0621 140.278,80.7288 150,92.5C 150.333,92.1667 150.667,91.8333 151,91.5C 152.039,93.7463 153.206,95.913 154.5,98C 161.68,98.5728 168.68,99.4061 175.5,100.5C 171.167,100.5 166.833,100.5 162.5,100.5C 159.167,100.5 155.833,100.5 152.5,100.5C 152.754,98.5992 152.42,97.9326 151.5,98.5C 147.818,98.6653 144.152,98.4986 140.5,98C 142.9,97.8142 145.234,97.3142 147.5,96.5C 146.855,95.354 146.022,94.354 145,93.5C 142.766,93.3737 140.432,93.7071 138,94.5C 137.5,92.6667 136.333,91.5 134.5,91C 119.794,87.1749 106.128,82.0082 93.5,75.5C 93.1667,75.8333 92.8333,76.1667 92.5,76.5C 94.4039,77.7659 95.7372,79.4325 96.5,81.5C 94.9139,80.5868 93.4139,80.5868 92,81.5C 90.6667,79.5 89.3333,77.5 88,75.5C 87.6667,75.8333 87.3333,76.1667 87,76.5C 83.8761,75.2591 80.7095,74.0924 77.5,73C 82.8333,72.6667 88.1667,72.3333 93.5,72C 93,71.5 92.5,71 92,70.5C 89.9189,71.3331 87.7522,71.3331 85.5,70.5C 85.6107,69.8826 85.944,69.3826 86.5,69C 91.5609,67.9111 96.2276,68.7444 100.5,71.5C 101.107,71.3764 101.44,71.0431 101.5,70.5C 110.975,71.9578 120.475,72.9578 130,73.5C 130.317,71.6992 130.984,71.3659 132,72.5C 132.995,71.9341 133.828,71.2674 134.5,70.5C 135.492,70.6716 136.158,70.3382 136.5,69.5C 138.482,69.0046 140.482,68.5046 142.5,68C 141.5,67.6667 140.5,67.3333 139.5,67C 140.177,64.0179 140.177,61.1846 139.5,58.5C 138.559,58.5105 137.892,58.0105 137.5,57C 138.029,55.4411 138.696,53.9411 139.5,52.5C 138.37,51.3777 137.703,50.0443 137.5,48.5C 138.605,47.3995 139.938,46.7329 141.5,46.5 Z M 146.5,91.5 C 148.262,92.2623 149.262,93.5956 149.5,95.5C 147.738,94.7377 146.738,93.4044 146.5,91.5 Z"/></g>
<g><path style="opacity:0.012" fill="#000000" d="M 134.5,70.5 C 133.833,69.1667 133.833,69.1667 134.5,70.5 Z"/></g>
<g><path style="opacity:0.004" fill="#000000" d="M 101.5,70.5 C 100.833,69.1667 100.833,69.1667 101.5,70.5 Z"/></g>
<g><path style="opacity:0.008" fill="#000000" d="M 136.5,69.5 C 135.833,68.1667 135.833,68.1667 136.5,69.5 Z"/></g>
<g><path style="opacity:0.004" fill="#000000" d="M 110.5,87.5 C 109.833,88.1667 109.833,88.1667 110.5,87.5 Z"/></g>
<g><path style="opacity:0.012" fill="#000000" d="M 222.5,89.5 C 221.833,89.5 221.5,89.8333 221.5,90.5C 220.833,90.5 220.5,90.8333 220.5,91.5C 219.833,91.5 219.5,91.8333 219.5,92.5C 219.167,92.5 218.833,92.5 218.5,92.5C 218.942,89.6679 220.275,88.6679 222.5,89.5 Z"/></g>
<g><path style="opacity:0.011" fill="#000000" d="M 93.5,91.5 C 92.3991,92.5983 91.0657,92.765 89.5,92C 90.7932,91.51 92.1266,91.3433 93.5,91.5 Z"/></g>
<g><path style="opacity:0.118" fill="#1a1818" d="M 196.5,98.5 C 196.489,100.017 195.823,101.184 194.5,102C 195.416,102.278 196.082,102.778 196.5,103.5C 195.833,103.5 195.167,103.5 194.5,103.5C 194.167,103.5 193.833,103.5 193.5,103.5C 191.228,105.808 190.894,108.475 192.5,111.5C 188.429,111.234 184.429,111.567 180.5,112.5C 179.702,112.043 179.369,111.376 179.5,110.5C 179.5,110.167 179.5,109.833 179.5,109.5C 180.338,109.158 180.672,108.492 180.5,107.5C 181.167,107.5 181.5,107.167 181.5,106.5C 182.167,106.5 182.5,106.167 182.5,105.5C 183.434,104.432 183.768,103.099 183.5,101.5C 180.721,101.721 178.054,101.388 175.5,100.5C 168.68,99.4061 161.68,98.5728 154.5,98C 153.206,95.913 152.039,93.7463 151,91.5C 150.667,91.8333 150.333,92.1667 150,92.5C 140.278,80.7288 142.111,78.0621 155.5,84.5C 155.736,83.7528 156.07,82.9195 156.5,82C 157.167,81.8333 157.833,81.6667 158.5,81.5C 160.494,83.16 162.494,84.8267 164.5,86.5C 166.851,88.2029 169.518,88.7029 172.5,88C 174.037,86.8904 174.703,85.3904 174.5,83.5C 179.216,86.4174 184.216,87.4174 189.5,86.5C 189.672,87.4916 189.338,88.1583 188.5,88.5C 187.167,88.8333 187.167,89.1667 188.5,89.5C 189.189,90.7736 190.023,90.7736 191,89.5C 193.238,84.8755 195.738,80.5422 198.5,76.5C 199.552,76.6495 200.552,76.4828 201.5,76C 203.963,70.1934 205.63,70.6934 206.5,77.5C 203.887,84.7236 200.221,91.3903 195.5,97.5C 195.624,98.1067 195.957,98.44 196.5,98.5 Z M 189.5,86.5 C 184.216,87.4174 179.216,86.4174 174.5,83.5C 171.747,82.9778 169.08,82.1445 166.5,81C 173.798,81.3084 180.965,82.4751 188,84.5C 188.333,83.8333 188.667,83.1667 189,82.5C 189.49,83.7932 189.657,85.1266 189.5,86.5 Z"/></g>
<g><path style="opacity:0.009" fill="#000000" d="M 218.5,92.5 C 218.5,92.8333 218.5,93.1667 218.5,93.5C 217.833,93.5 217.5,93.8333 217.5,94.5C 216.833,94.5 216.5,94.8333 216.5,95.5C 215.833,95.5 215.5,95.8333 215.5,96.5C 214.833,96.5 214.5,96.8333 214.5,97.5C 213.833,97.5 213.5,97.8333 213.5,98.5C 212.475,98.1034 212.308,97.4368 213,96.5C 214.451,94.5359 216.284,93.2026 218.5,92.5 Z"/></g>
<g><path style="opacity:1" fill="#131111" d="M 151.5,98.5 C 143.3,99.7539 134.967,99.5873 126.5,98C 125.667,97.1667 124.833,96.3333 124,95.5C 123.581,96.6721 122.915,97.6721 122,98.5C 120.274,97.4238 118.441,97.2571 116.5,98C 117.938,98.2189 119.271,98.7189 120.5,99.5C 116.726,100.709 113.726,102.876 111.5,106C 110.167,106.333 108.833,106.667 107.5,107C 108.833,107.667 108.833,108.333 107.5,109C 103.735,109.525 100.735,111.692 98.5,115.5C 98.1667,115.5 97.8333,115.5 97.5,115.5C 94.9327,115.721 92.5994,116.388 90.5,117.5C 84.3917,118.636 78.3917,119.636 72.5,120.5C 71.5222,120.189 70.8555,119.522 70.5,118.5C 71.1667,118.167 71.8333,117.833 72.5,117.5C 71.3984,116.824 70.3984,116.158 69.5,115.5C 68.1605,117.84 66.4938,119.173 64.5,119.5C 63.2612,117.993 63.5946,116.826 65.5,116C 55.7593,116.912 45.7593,118.912 35.5,122C 33.5,122.667 31.5,122.667 29.5,122C 33.3328,120.597 37.3328,118.763 41.5,116.5C 42.086,116.709 42.586,117.043 43,117.5C 46.0482,115.833 49.0482,114.166 52,112.5C 54.33,114.032 56.33,113.698 58,111.5C 59.2917,112.791 60.4583,112.791 61.5,111.5C 63.7659,111.859 65.5993,111.192 67,109.5C 68.3639,110.258 69.5305,109.758 70.5,108C 69.5494,107.282 69.3828,106.449 70,105.5C 71.3024,104.915 72.469,104.249 73.5,103.5C 75.6298,101.873 77.6298,100.04 79.5,98C 79.1667,97.6667 78.8333,97.3333 78.5,97C 83.5763,94.5857 88.9096,93.0857 94.5,92.5C 94.3764,91.8933 94.0431,91.56 93.5,91.5C 91.9456,90.1054 92.279,89.4387 94.5,89.5C 99.8275,90.9806 105.161,91.3139 110.5,90.5C 111.528,92.5803 112.862,92.9136 114.5,91.5C 114.611,90.8826 114.944,90.3826 115.5,90C 114.09,88.6283 112.423,87.795 110.5,87.5C 105.751,85.6948 101.085,83.6948 96.5,81.5C 95.7372,79.4325 94.4039,77.7659 92.5,76.5C 92.8333,76.1667 93.1667,75.8333 93.5,75.5C 106.128,82.0082 119.794,87.1749 134.5,91C 136.333,91.5 137.5,92.6667 138,94.5C 140.432,93.7071 142.766,93.3737 145,93.5C 146.022,94.354 146.855,95.354 147.5,96.5C 145.234,97.3142 142.9,97.8142 140.5,98C 144.152,98.4986 147.818,98.6653 151.5,98.5 Z M 120.5,94.5 C 122.028,94.5173 122.528,95.184 122,96.5C 121.283,95.9558 120.783,95.2891 120.5,94.5 Z M 114.5,91.5 C 117.216,91.3862 119.216,92.3862 120.5,94.5C 118.181,94.0075 116.181,93.0075 114.5,91.5 Z M 94.5,106.5 C 94.9867,105.527 95.4867,104.527 96,103.5C 98.1293,104.863 98.6293,104.529 97.5,102.5C 94.4101,100.514 91.0767,100.181 87.5,101.5C 87.1667,100.5 86.5,99.8333 85.5,99.5C 86.2625,98.7321 87.2625,98.2321 88.5,98C 92.4862,97.5012 96.4862,97.3345 100.5,97.5C 104.47,96.6932 108.804,96.5266 113.5,97C 111.5,97.3333 109.5,97.6667 107.5,98C 109.608,98.3599 111.608,99.0266 113.5,100C 106.968,101.677 100.634,103.844 94.5,106.5 Z M 81.5,102.5 C 81.5,103.167 81.8333,103.5 82.5,103.5C 82.5,103.833 82.5,104.167 82.5,104.5C 80.5759,104.289 80.2426,103.623 81.5,102.5 Z M 77.5,106.5 C 80.6034,105.203 80.9367,105.536 78.5,107.5C 77.8933,107.376 77.56,107.043 77.5,106.5 Z M 94.5,106.5 C 94.1583,107.338 93.4916,107.672 92.5,107.5C 92.4088,105.302 93.0755,104.969 94.5,106.5 Z M 89.5,107.5 C 90.3478,106.375 91.3478,106.375 92.5,107.5C 92.1583,108.338 91.4916,108.672 90.5,108.5C 90.5,107.833 90.1667,107.5 89.5,107.5 Z M 89.5,107.5 C 90.1667,107.5 90.5,107.833 90.5,108.5C 90.1583,109.338 89.4916,109.672 88.5,109.5C 86.9689,108.075 87.3023,107.409 89.5,107.5 Z M 84.5,109.5 C 85.2891,109.783 85.9558,110.283 86.5,111C 84.9194,111.707 83.4194,112.54 82,113.5C 82.1929,111.918 83.0262,110.584 84.5,109.5 Z M 69.5,115.5 C 70.2039,113.656 71.5372,113.156 73.5,114C 72.0993,114.41 70.766,114.91 69.5,115.5 Z"/></g>
<g><path style="opacity:0.007" fill="#000000" d="M 85.5,99.5 C 86.5,99.8333 87.1667,100.5 87.5,101.5C 86.8333,101.5 86.5,101.833 86.5,102.5C 86.1667,102.5 85.8333,102.5 85.5,102.5C 84.8333,101.833 84.1667,101.167 83.5,100.5C 84.4916,100.672 85.1583,100.338 85.5,99.5 Z"/></g>
<g><path style="opacity:0.439" fill="#4c1e16" d="M 162.5,100.5 C 166.833,100.5 171.167,100.5 175.5,100.5C 178.054,101.388 180.721,101.721 183.5,101.5C 183.768,103.099 183.434,104.432 182.5,105.5C 182.167,105.5 181.833,105.5 181.5,105.5C 181.5,104.833 181.5,104.167 181.5,103.5C 179.052,102.527 176.385,102.194 173.5,102.5C 173.167,102.5 172.833,102.5 172.5,102.5C 169.167,101.833 165.833,101.167 162.5,100.5 Z"/></g>
<g><path style="opacity:0.239" fill="#7e2708" d="M 321.5,101.5 C 325.97,100.514 330.637,100.181 335.5,100.5C 335.5,100.833 335.5,101.167 335.5,101.5C 331.069,101.231 326.735,101.564 322.5,102.5C 322.5,101.833 322.167,101.5 321.5,101.5 Z"/></g>
<g><path style="opacity:0.012" fill="#000000" d="M 73.5,103.5 C 72.8333,102.167 72.8333,102.167 73.5,103.5 Z"/></g>
<g><path style="opacity:0.006" fill="#000000" d="M 85.5,102.5 C 85.5,102.833 85.5,103.167 85.5,103.5C 84.8333,103.5 84.5,103.833 84.5,104.5C 83.8333,104.5 83.1667,104.5 82.5,104.5C 82.5,104.167 82.5,103.833 82.5,103.5C 83.391,102.89 84.391,102.557 85.5,102.5 Z"/></g>
<g><path style="opacity:1" fill="#e3501d" d="M 172.5,102.5 C 172.833,102.5 173.167,102.5 173.5,102.5C 175.948,103.473 178.615,103.806 181.5,103.5C 181.5,104.167 181.5,104.833 181.5,105.5C 181.5,105.833 181.5,106.167 181.5,106.5C 181.5,107.167 181.167,107.5 180.5,107.5C 180.167,107.5 179.833,107.5 179.5,107.5C 179.5,106.5 179.5,105.5 179.5,104.5C 167.162,104.333 154.829,104.5 142.5,105C 141.316,106.145 141.316,107.312 142.5,108.5C 141.022,108.762 139.689,108.429 138.5,107.5C 140.091,104.744 142.424,102.911 145.5,102C 154.491,101.965 163.491,102.132 172.5,102.5 Z"/></g>
<g><path style="opacity:0.431" fill="#6f2810" d="M 232.5,101.5 C 232.833,101.5 233.167,101.5 233.5,101.5C 233.047,102.458 232.381,103.292 231.5,104C 223.841,104.5 216.174,104.666 208.5,104.5C 208.5,103.833 208.833,103.5 209.5,103.5C 216.508,103.666 223.508,103.5 230.5,103C 231.044,102.283 231.711,101.783 232.5,101.5 Z"/></g>
<g><path style="opacity:1" fill="#f74c08" d="M 239.5,93.5 C 241.615,95.8907 244.281,97.2241 247.5,97.5C 247.216,99.8771 247.216,102.044 247.5,104C 247,104.5 246.5,105 246,105.5C 244.355,105.307 242.521,105.14 240.5,105C 244.517,103.339 244.35,102.172 240,101.5C 237.136,102.068 236.302,103.568 237.5,106C 235.93,108.927 233.596,109.927 230.5,109C 229.01,107.366 227.676,107.699 226.5,110C 228.649,110.579 230.815,111.079 233,111.5C 235.079,110.597 237.246,109.931 239.5,109.5C 243.252,111.303 247.252,112.303 251.5,112.5C 251.5,112.833 251.5,113.167 251.5,113.5C 248.038,114.482 244.371,114.815 240.5,114.5C 230.143,113.793 220.143,114.793 210.5,117.5C 209.833,117.5 209.167,117.5 208.5,117.5C 186.815,118.668 165.148,120.168 143.5,122C 139.867,122.149 136.534,122.982 133.5,124.5C 133.5,125.167 133.167,125.5 132.5,125.5C 122.628,124.811 112.628,124.144 102.5,123.5C 101.713,124.242 101.047,125.075 100.5,126C 88.9752,127.344 88.6418,125.844 99.5,121.5C 99.0233,120.522 98.3567,119.689 97.5,119C 100.047,118.34 102.547,118.507 105,119.5C 108.63,116.696 113.464,114.363 119.5,112.5C 124.344,111.411 129.344,110.411 134.5,109.5C 135.554,109.68 136.554,110.013 137.5,110.5C 139.977,110.073 141.644,109.406 142.5,108.5C 141.316,107.312 141.316,106.145 142.5,105C 154.829,104.5 167.162,104.333 179.5,104.5C 179.5,105.5 179.5,106.5 179.5,107.5C 179.5,108.167 179.5,108.833 179.5,109.5C 178.833,109.5 178.5,109.833 178.5,110.5C 178.5,110.833 178.5,111.167 178.5,111.5C 177.167,111.833 177.167,112.167 178.5,112.5C 180.265,113.461 182.265,113.795 184.5,113.5C 185.167,113.5 185.5,113.167 185.5,112.5C 188.167,112.5 190.833,112.5 193.5,112.5C 195.224,112.539 195.557,112.206 194.5,111.5C 194.5,111.167 194.5,110.833 194.5,110.5C 194.5,109.833 194.167,109.5 193.5,109.5C 193.5,108.833 193.5,108.167 193.5,107.5C 193.5,107.167 193.5,106.833 193.5,106.5C 193.5,106.167 193.5,105.833 193.5,105.5C 194.338,105.158 194.672,104.492 194.5,103.5C 195.167,103.5 195.833,103.5 196.5,103.5C 200.203,104.119 204.203,104.452 208.5,104.5C 216.174,104.666 223.841,104.5 231.5,104C 232.381,103.292 233.047,102.458 233.5,101.5C 233.5,101.167 233.5,100.833 233.5,100.5C 234.833,100.167 234.833,99.8333 233.5,99.5C 234.5,97.8333 235.833,96.5 237.5,95.5C 238.167,95.5 238.5,95.1667 238.5,94.5C 239.167,94.5 239.5,94.1667 239.5,93.5 Z"/></g>
<g><path style="opacity:0.008" fill="#000000" d="M 332.5,108.5 C 332.833,108.5 333.167,108.5 333.5,108.5C 333.315,109.17 332.981,109.17 332.5,108.5 Z"/></g>
<g><path style="opacity:0.004" fill="#000000" d="M 61.5,111.5 C 60.8333,110.167 60.8333,110.167 61.5,111.5 Z"/></g>
<g><path style="opacity:1" fill="#d7501c" d="M 318.5,105.5 C 318.5,105.833 318.5,106.167 318.5,106.5C 317.833,106.5 317.5,106.833 317.5,107.5C 316.833,107.5 316.5,107.833 316.5,108.5C 314.833,108.5 313.167,108.5 311.5,108.5C 310.209,108.263 309.209,108.596 308.5,109.5C 308.167,109.5 307.833,109.5 307.5,109.5C 307.167,108.167 306.833,108.167 306.5,109.5C 304.833,109.5 303.167,109.5 301.5,109.5C 299.585,109.216 297.919,109.549 296.5,110.5C 294.833,110.5 293.167,110.5 291.5,110.5C 288.941,110.198 286.607,110.532 284.5,111.5C 283.833,111.5 283.167,111.5 282.5,111.5C 279.941,111.198 277.607,111.532 275.5,112.5C 274.391,112.557 273.391,112.89 272.5,113.5C 265.677,112.862 258.677,112.862 251.5,113.5C 251.5,113.167 251.5,112.833 251.5,112.5C 273.735,110.051 296.069,107.718 318.5,105.5 Z"/></g>
<g><path style="opacity:0.565" fill="#692612" d="M 193.5,103.5 C 193.5,104.167 193.5,104.833 193.5,105.5C 193.5,105.833 193.5,106.167 193.5,106.5C 192.167,106.833 192.167,107.167 193.5,107.5C 193.5,108.167 193.5,108.833 193.5,109.5C 194.167,109.5 194.5,109.833 194.5,110.5C 194.5,110.833 194.5,111.167 194.5,111.5C 193.833,111.5 193.5,111.833 193.5,112.5C 190.833,112.5 188.167,112.5 185.5,112.5C 184.833,112.5 184.5,112.833 184.5,113.5C 182.265,113.795 180.265,113.461 178.5,112.5C 178.5,112.167 178.5,111.833 178.5,111.5C 178.5,111.167 178.5,110.833 178.5,110.5C 178.833,110.5 179.167,110.5 179.5,110.5C 179.369,111.376 179.702,112.043 180.5,112.5C 184.429,111.567 188.429,111.234 192.5,111.5C 190.894,108.475 191.228,105.808 193.5,103.5 Z"/></g>
<g><path style="opacity:0.945" fill="#d44e21" d="M 240.5,114.5 C 237.833,115.167 235.167,115.833 232.5,116.5C 224.974,117.021 217.641,117.354 210.5,117.5C 220.143,114.793 230.143,113.793 240.5,114.5 Z"/></g>
<g><path style="opacity:0.004" fill="#000000" d="M 324.5,115.5 C 325.833,116.167 325.833,116.167 324.5,115.5 Z"/></g>
<g><path style="opacity:0.008" fill="#000000" d="M 323.5,116.5 C 323.833,116.5 324.167,116.5 324.5,116.5C 324.315,117.17 323.981,117.17 323.5,116.5 Z"/></g>
<g><path style="opacity:1" fill="#211a19" d="M 335.5,101.5 C 338.179,101.525 339.512,102.858 339.5,105.5C 337.012,105.683 335.012,106.683 333.5,108.5C 333.167,107.167 332.833,107.167 332.5,108.5C 331.167,108.833 331.167,109.167 332.5,109.5C 329.048,110.343 326.381,112.343 324.5,115.5C 323.833,115.5 323.5,115.833 323.5,116.5C 322.167,117.167 321.167,118.167 320.5,119.5C 319.167,119.833 319.167,120.167 320.5,120.5C 319.746,122.505 318.579,123.172 317,122.5C 314.401,124.879 311.567,126.879 308.5,128.5C 307.883,128.389 307.383,128.056 307,127.5C 303.25,129.959 299.417,132.292 295.5,134.5C 294.777,132.836 295.11,131.169 296.5,129.5C 296.023,128.522 295.357,127.689 294.5,127C 287.752,126.555 281.086,126.888 274.5,128C 278.613,125.609 282.946,123.776 287.5,122.5C 286.359,121.575 286.359,120.741 287.5,120C 286.552,119.517 285.552,119.351 284.5,119.5C 284.539,118.417 284.873,117.417 285.5,116.5C 284.333,116.167 283.167,115.833 282,115.5C 279.915,117.107 276.415,118.44 271.5,119.5C 270.5,119.333 269.5,119.167 268.5,119C 269.672,118.581 270.672,117.915 271.5,117C 259.436,116.34 247.436,117.007 235.5,119C 239.852,119.419 240.185,120.086 236.5,121C 233.5,121.667 230.5,121.667 227.5,121C 231.414,120.103 231.248,119.603 227,119.5C 217.179,120.765 207.345,121.932 197.5,123C 198.793,123.49 200.127,123.657 201.5,123.5C 201.884,125.665 201.217,127.332 199.5,128.5C 198.174,127.01 196.674,125.676 195,124.5C 191.263,125.155 187.429,125.155 183.5,124.5C 180.325,124.454 177.658,125.454 175.5,127.5C 173.883,126.358 172.05,125.691 170,125.5C 162.185,126.632 154.352,127.132 146.5,127C 147.056,126.617 147.389,126.117 147.5,125.5C 176.024,122.948 204.358,119.948 232.5,116.5C 245.833,115.5 259.166,114.5 272.5,113.5C 273.391,112.89 274.391,112.557 275.5,112.5C 278.059,112.802 280.393,112.468 282.5,111.5C 283.167,111.5 283.833,111.5 284.5,111.5C 287.059,111.802 289.393,111.468 291.5,110.5C 293.167,110.5 294.833,110.5 296.5,110.5C 298.415,110.784 300.081,110.451 301.5,109.5C 303.167,109.5 304.833,109.5 306.5,109.5C 306.833,109.5 307.167,109.5 307.5,109.5C 307.833,109.5 308.167,109.5 308.5,109.5C 309.791,109.737 310.791,109.404 311.5,108.5C 313.167,108.5 314.833,108.5 316.5,108.5C 317.167,108.5 317.5,108.167 317.5,107.5C 318.167,107.5 318.5,107.167 318.5,106.5C 319.167,106.5 319.5,106.167 319.5,105.5C 320.167,105.5 320.5,105.167 320.5,104.5C 320.5,104.167 320.5,103.833 320.5,103.5C 321.167,103.5 321.5,103.167 321.5,102.5C 321.833,102.5 322.167,102.5 322.5,102.5C 326.735,101.564 331.069,101.231 335.5,101.5 Z"/></g>
<g><path style="opacity:0.004" fill="#000000" d="M 320.5,119.5 C 321.833,120.167 321.833,120.167 320.5,119.5 Z"/></g>
<g><path style="opacity:1" fill="#d5501e" d="M 208.5,117.5 C 183.726,120.717 158.726,123.051 133.5,124.5C 136.534,122.982 139.867,122.149 143.5,122C 165.148,120.168 186.815,118.668 208.5,117.5 Z"/></g>
<g><path style="opacity:1" fill="#ef4e0e" d="M 119.5,112.5 C 113.464,114.363 108.63,116.696 105,119.5C 102.547,118.507 100.047,118.34 97.5,119C 98.3567,119.689 99.0233,120.522 99.5,121.5C 88.6418,125.844 88.9752,127.344 100.5,126C 101.047,125.075 101.713,124.242 102.5,123.5C 112.628,124.144 122.628,124.811 132.5,125.5C 118.179,126.666 103.845,127.666 89.5,128.5C 83.275,128.957 77.6083,127.457 72.5,124C 78.7018,122.102 84.7018,119.935 90.5,117.5C 92.5994,116.388 94.9327,115.721 97.5,115.5C 97.8333,116.833 98.1667,116.833 98.5,115.5C 105.212,114.22 112.212,113.22 119.5,112.5 Z"/></g>
<g><path style="opacity:1" fill="#d24b17" d="M 90.5,117.5 C 84.7018,119.935 78.7018,122.102 72.5,124C 77.6083,127.457 83.275,128.957 89.5,128.5C 86.9831,129.973 84.1498,130.64 81,130.5C 79.1667,130.333 77.3333,130.167 75.5,130C 76.5,129.667 77.5,129.333 78.5,129C 75.8387,128.42 73.3387,127.586 71,126.5C 66.9215,127.629 62.7548,127.796 58.5,127C 62.3553,125.011 66.3553,123.177 70.5,121.5C 71.6753,122.855 72.6753,122.688 73.5,121C 73.2716,120.601 72.9382,120.435 72.5,120.5C 78.3917,119.636 84.3917,118.636 90.5,117.5 Z"/></g>
<g><path style="opacity:1" fill="#221f20" d="M 284.5,119.5 C 273.123,119.859 262.456,122.026 252.5,126C 240.844,133.577 228.344,139.411 215,143.5C 196.539,148.721 177.539,152.054 158,153.5C 157.326,152.422 156.326,151.755 155,151.5C 134.449,147.465 114.616,149.632 95.5,158C 91.0182,157.937 86.8515,158.77 83,160.5C 75.8923,159.635 68.7256,159.468 61.5,160C 67.2874,157.606 72.9541,154.94 78.5,152C 98.0592,148.678 117.726,146.011 137.5,144C 141.688,142.411 145.354,140.077 148.5,137C 142.666,134.165 136.5,132.332 130,131.5C 120.165,132.818 110.332,132.818 100.5,131.5C 98.0772,131.594 95.7438,132.094 93.5,133C 94.756,133.417 95.4226,134.25 95.5,135.5C 83.8172,135.305 72.1505,135.638 60.5,136.5C 58.5,136.167 56.5,135.833 54.5,135.5C 85.4797,131.969 116.48,128.635 147.5,125.5C 147.389,126.117 147.056,126.617 146.5,127C 154.352,127.132 162.185,126.632 170,125.5C 172.05,125.691 173.883,126.358 175.5,127.5C 177.658,125.454 180.325,124.454 183.5,124.5C 187.429,125.155 191.263,125.155 195,124.5C 196.674,125.676 198.174,127.01 199.5,128.5C 201.217,127.332 201.884,125.665 201.5,123.5C 200.127,123.657 198.793,123.49 197.5,123C 207.345,121.932 217.179,120.765 227,119.5C 231.248,119.603 231.414,120.103 227.5,121C 230.5,121.667 233.5,121.667 236.5,121C 240.185,120.086 239.852,119.419 235.5,119C 247.436,117.007 259.436,116.34 271.5,117C 270.672,117.915 269.672,118.581 268.5,119C 269.5,119.167 270.5,119.333 271.5,119.5C 276.415,118.44 279.915,117.107 282,115.5C 283.167,115.833 284.333,116.167 285.5,116.5C 284.873,117.417 284.539,118.417 284.5,119.5 Z"/></g>
<g><path style="opacity:0.031" fill="#000000" d="M 308.5,129.5 C 309.833,130.167 309.833,130.167 308.5,129.5 Z"/></g>
<g><path style="opacity:0.429" fill="#090a0c" d="M 284.5,119.5 C 285.552,119.351 286.552,119.517 287.5,120C 286.359,120.741 286.359,121.575 287.5,122.5C 282.946,123.776 278.613,125.609 274.5,128C 281.086,126.888 287.752,126.555 294.5,127C 295.357,127.689 296.023,128.522 296.5,129.5C 295.11,131.169 294.777,132.836 295.5,134.5C 299.417,132.292 303.25,129.959 307,127.5C 307.383,128.056 307.883,128.389 308.5,128.5C 308.5,128.833 308.5,129.167 308.5,129.5C 299.501,134.117 290.335,139.117 281,144.5C 278.502,143.879 276.168,144.545 274,146.5C 270.856,146.419 267.689,147.252 264.5,149C 260.823,149.718 257.157,150.051 253.5,150C 256.122,148.525 258.788,147.359 261.5,146.5C 266.144,145.401 270.478,143.734 274.5,141.5C 279.098,140.535 283.098,138.535 286.5,135.5C 287.882,134.199 289.548,133.366 291.5,133C 292.833,132.333 292.833,131.667 291.5,131C 288.318,130.593 285.151,130.093 282,129.5C 280.93,129.528 280.097,129.861 279.5,130.5C 275.47,130.799 271.637,131.799 268,133.5C 267.5,133 267,132.5 266.5,132C 268.093,131.051 269.426,129.885 270.5,128.5C 271.872,127.488 273.205,126.488 274.5,125.5C 275.147,124.06 276.814,123.06 279.5,122.5C 272.667,122.84 265.667,124.007 258.5,126C 247.493,130.849 236.493,136.515 225.5,143C 204.931,149.224 183.931,153.391 162.5,155.5C 162.167,155.5 161.833,155.5 161.5,155.5C 160.432,154.566 159.099,154.232 157.5,154.5C 157.167,154.5 156.833,154.5 156.5,154.5C 155.432,153.566 154.099,153.232 152.5,153.5C 152.167,153.5 151.833,153.5 151.5,153.5C 149.833,152.167 148.167,152.167 146.5,153.5C 145.391,153.443 144.391,153.11 143.5,152.5C 138.5,151.167 133.5,151.167 128.5,152.5C 127.298,151.595 125.964,151.595 124.5,152.5C 122.833,152.5 121.167,152.5 119.5,152.5C 118.609,153.11 117.609,153.443 116.5,153.5C 115.209,153.263 114.209,153.596 113.5,154.5C 113.167,154.5 112.833,154.5 112.5,154.5C 111.209,154.263 110.209,154.596 109.5,155.5C 108.5,156.833 107.5,156.833 106.5,155.5C 105.833,155.5 105.5,155.833 105.5,156.5C 105.5,157.167 105.167,157.5 104.5,157.5C 103.833,156.167 103.167,156.167 102.5,157.5C 102.5,158.167 102.167,158.5 101.5,158.5C 101.167,157.167 100.833,157.167 100.5,158.5C 100.167,158.5 99.8333,158.5 99.5,158.5C 99.1667,158.5 98.8333,158.5 98.5,158.5C 97.8333,159.167 97.1667,159.833 96.5,160.5C 96.1667,159.167 95.8333,159.167 95.5,160.5C 82.1354,161.146 68.8021,162.146 55.5,163.5C 54.8333,163.167 54.1667,162.833 53.5,162.5C 54.7701,161.712 55.7701,160.712 56.5,159.5C 57.4916,159.672 58.1583,159.338 58.5,158.5C 67.1869,155.493 74.1869,152.327 79.5,149C 100.302,146.655 120.969,143.655 141.5,140C 141.833,139 142.167,138 142.5,137C 140.412,135.97 138.245,135.137 136,134.5C 122.601,135.367 109.101,135.7 95.5,135.5C 95.4226,134.25 94.756,133.417 93.5,133C 95.7438,132.094 98.0772,131.594 100.5,131.5C 110.332,132.818 120.165,132.818 130,131.5C 136.5,132.332 142.666,134.165 148.5,137C 145.354,140.077 141.688,142.411 137.5,144C 117.726,146.011 98.0592,148.678 78.5,152C 72.9541,154.94 67.2874,157.606 61.5,160C 68.7256,159.468 75.8923,159.635 83,160.5C 86.8515,158.77 91.0182,157.937 95.5,158C 114.616,149.632 134.449,147.465 155,151.5C 156.326,151.755 157.326,152.422 158,153.5C 177.539,152.054 196.539,148.721 215,143.5C 228.344,139.411 240.844,133.577 252.5,126C 262.456,122.026 273.123,119.859 284.5,119.5 Z"/></g>
<g><path style="opacity:0.006" fill="#000000" d="M 261.5,146.5 C 260.127,146.657 258.793,146.49 257.5,146C 259.066,145.235 260.399,145.402 261.5,146.5 Z"/></g>
<g><path style="opacity:0.004" fill="#000000" d="M 274.5,141.5 C 273.761,141.631 273.094,141.464 272.5,141C 273.437,140.308 274.103,140.475 274.5,141.5 Z"/></g>
<g><path style="opacity:0.004" fill="#000000" d="M 286.5,135.5 C 285.833,134.167 285.833,134.167 286.5,135.5 Z"/></g>
<g><path style="opacity:0.007" fill="#000000" d="M 279.5,130.5 C 280.552,130.351 281.552,130.517 282.5,131C 281.251,131.74 280.251,131.573 279.5,130.5 Z"/></g>
<g><path style="opacity:0.004" fill="#000000" d="M 268.5,128.5 C 267.833,129.167 267.833,129.167 268.5,128.5 Z"/></g>
<g><path style="opacity:0.008" fill="#000000" d="M 268.5,128.5 C 269.167,127.167 269.833,127.167 270.5,128.5C 269.833,128.5 269.167,128.5 268.5,128.5 Z"/></g>
<g><path style="opacity:0.004" fill="#000000" d="M 274.5,125.5 C 273.833,124.167 273.833,124.167 274.5,125.5 Z"/></g>
<g><path style="opacity:0.004" fill="#000000" d="M 58.5,158.5 C 57.8333,157.167 57.8333,157.167 58.5,158.5 Z"/></g>
<g><path style="opacity:0.004" fill="#000000" d="M 56.5,159.5 C 55.7611,159.631 55.0944,159.464 54.5,159C 55.4368,158.308 56.1034,158.475 56.5,159.5 Z"/></g>
<g><path style="opacity:1" fill="#1e5586" d="M 278.5,172.5 C 278.47,171.503 278.97,170.836 280,170.5C 283.745,169.106 287.578,168.106 291.5,167.5C 291.5,166.5 291.5,165.5 291.5,164.5C 288.833,164.5 286.167,164.5 283.5,164.5C 292.035,161.849 300.535,158.849 309,155.5C 309.833,155.833 310.667,156.167 311.5,156.5C 301.542,163.724 290.542,169.057 278.5,172.5 Z"/></g>
<g><path style="opacity:1" fill="#13619e" d="M 128.5,152.5 C 133.5,152.5 138.5,152.5 143.5,152.5C 144.391,153.11 145.391,153.443 146.5,153.5C 148.167,153.5 149.833,153.5 151.5,153.5C 151.833,153.5 152.167,153.5 152.5,153.5C 153.568,154.434 154.901,154.768 156.5,154.5C 156.833,154.5 157.167,154.5 157.5,154.5C 158.568,155.434 159.901,155.768 161.5,155.5C 161.833,155.5 162.167,155.5 162.5,155.5C 172.099,158.812 181.766,162.145 191.5,165.5C 209.542,164.038 227.542,164.538 245.5,167C 246.833,167.667 246.833,168.333 245.5,169C 240.757,171.077 235.757,172.244 230.5,172.5C 219.217,170.862 207.884,170.362 196.5,171C 192.453,172.072 188.453,173.239 184.5,174.5C 182.425,174.698 180.425,174.865 178.5,175C 180.311,173.959 180.645,172.793 179.5,171.5C 150.232,156.866 120.899,156.033 91.5,169C 83.4316,174.033 75.0982,178.533 66.5,182.5C 64.5168,182.843 63.1834,182.176 62.5,180.5C 73.3662,173.569 84.3662,166.902 95.5,160.5C 95.8333,160.5 96.1667,160.5 96.5,160.5C 97.1667,159.833 97.8333,159.167 98.5,158.5C 98.8333,159.833 99.1667,159.833 99.5,158.5C 99.8333,158.5 100.167,158.5 100.5,158.5C 100.833,158.5 101.167,158.5 101.5,158.5C 102.167,158.5 102.5,158.167 102.5,157.5C 103.167,157.5 103.833,157.5 104.5,157.5C 105.167,157.5 105.5,157.167 105.5,156.5C 106.167,156.5 106.5,156.167 106.5,155.5C 107.5,156.833 108.5,156.833 109.5,155.5C 110.791,155.737 111.791,155.404 112.5,154.5C 112.833,154.5 113.167,154.5 113.5,154.5C 114.791,154.737 115.791,154.404 116.5,153.5C 117.609,153.443 118.609,153.11 119.5,152.5C 121.167,153.833 122.833,153.833 124.5,152.5C 125.964,151.595 127.298,151.595 128.5,152.5 Z"/></g>
<g><path style="opacity:0.192" fill="#1e5b8d" d="M 283.5,164.5 C 282.486,165.765 280.986,166.431 279,166.5C 267.676,167.281 256.51,168.948 245.5,171.5C 245.5,172.5 245.5,173.5 245.5,174.5C 253.167,174.5 260.833,174.5 268.5,174.5C 260.01,175.657 251.343,175.824 242.5,175C 238.301,174.472 234.301,173.639 230.5,172.5C 235.757,172.244 240.757,171.077 245.5,169C 246.833,168.333 246.833,167.667 245.5,167C 227.542,164.538 209.542,164.038 191.5,165.5C 197.299,163.055 203.465,161.722 210,161.5C 222.554,162.548 235.054,164.048 247.5,166C 259.57,166.871 271.57,166.371 283.5,164.5 Z"/></g>
<g><path style="opacity:1" fill="#0e62a7" d="M 283.5,164.5 C 286.167,164.5 288.833,164.5 291.5,164.5C 291.5,165.5 291.5,166.5 291.5,167.5C 287.578,168.106 283.745,169.106 280,170.5C 278.97,170.836 278.47,171.503 278.5,172.5C 275.411,173.785 272.078,174.451 268.5,174.5C 260.833,174.5 253.167,174.5 245.5,174.5C 245.5,173.5 245.5,172.5 245.5,171.5C 256.51,168.948 267.676,167.281 279,166.5C 280.986,166.431 282.486,165.765 283.5,164.5 Z"/></g>
<g><path style="opacity:0.69" fill="#25537b" d="M 179.5,171.5 C 180.645,172.793 180.311,173.959 178.5,175C 180.425,174.865 182.425,174.698 184.5,174.5C 180.5,177.167 176.5,179.833 172.5,182.5C 168.307,185.782 167.14,185.115 169,180.5C 172.692,177.635 176.192,174.635 179.5,171.5 Z"/></g>
<g><path style="opacity:1" fill="#30acd7" d="M 122.5,166.5 C 136.652,165.302 149.985,167.968 162.5,174.5C 164.436,175.908 164.602,177.241 163,178.5C 146.81,171.578 130.31,170.744 113.5,176C 103.5,181 93.5,186 83.5,191C 75.2619,193.826 66.9285,194.159 58.5,192C 65.4123,190.091 72.4123,188.424 79.5,187C 88.6293,182.268 97.6293,177.268 106.5,172C 111.855,169.802 117.189,167.968 122.5,166.5 Z"/></g>
<g><path style="opacity:0.008" fill="#00807f" d="M 172.5,182.5 C 173.833,183.167 173.833,183.167 172.5,182.5 Z"/></g>
<g><path style="opacity:1" fill="#31aad8" d="M 211.5,176.5 C 214.85,176.335 218.183,176.502 221.5,177C 230.526,179.6 239.693,181.433 249,182.5C 254.516,182.332 259.849,181.332 265,179.5C 266.225,179.862 267.391,180.362 268.5,181C 266.844,182.829 264.844,184.163 262.5,185C 256.489,186.974 250.323,188.141 244,188.5C 233.381,186.72 222.881,184.387 212.5,181.5C 207.576,182.56 202.909,184.227 198.5,186.5C 197.948,184.997 197.948,183.331 198.5,181.5C 202.773,179.524 207.107,177.857 211.5,176.5 Z"/></g>
<g><path style="opacity:0.98" fill="#1d4d76" d="M 62.5,180.5 C 63.1834,182.176 64.5168,182.843 66.5,182.5C 50.126,191.229 32.7927,193.562 14.5,189.5C 13.6971,188.577 13.5304,187.577 14,186.5C 20.9092,189.212 28.0759,190.046 35.5,189C 44.9275,187.468 53.9275,184.635 62.5,180.5 Z"/></g>
<g><path style="opacity:0.008" fill="#000000" d="M 14.5,189.5 C 13.8333,190.167 13.8333,190.167 14.5,189.5 Z"/></g>
<g><path style="opacity:0.992" fill="#080608" d="M 250.5,217.5 C 247.494,219.839 244.827,222.506 242.5,225.5C 230.007,226.167 217.673,226.833 205.5,227.5C 204.167,228.5 204.167,229.5 205.5,230.5C 216.993,231.331 228.659,231.831 240.5,232C 249.653,236.409 251.82,243.243 247,252.5C 244.971,254.033 243.138,255.699 241.5,257.5C 239.188,258.32 236.854,259.153 234.5,260C 217.157,260.833 199.824,260.666 182.5,259.5C 184.523,257.147 186.523,254.814 188.5,252.5C 190.791,251.458 191.791,249.958 191.5,248C 205.167,247.667 218.833,247.333 232.5,247C 233.791,244.91 233.124,243.576 230.5,243C 230.833,242.667 231.167,242.333 231.5,242C 220.08,241.312 208.913,241.478 198,242.5C 195.713,240.946 193.546,239.279 191.5,237.5C 189.993,233.958 188.993,230.292 188.5,226.5C 191.218,219.617 196.218,215.451 203.5,214C 220.167,213.333 236.833,213.333 253.5,214C 251.944,214.72 250.944,215.887 250.5,217.5 Z"/></g>
<g><path style="opacity:0.983" fill="#050406" d="M 301.5,227.5 C 298.539,228.814 295.872,230.481 293.5,232.5C 292.833,232.5 292.5,232.833 292.5,233.5C 291.508,233.328 290.842,233.662 290.5,234.5C 287.833,235.5 287.833,236.5 290.5,237.5C 292.142,238.803 293.809,240.136 295.5,241.5C 296.5,242.167 297.5,242.833 298.5,243.5C 297.167,243.833 297.167,244.167 298.5,244.5C 300.304,247.056 302.971,249.39 306.5,251.5C 308.641,253.718 310.808,256.051 313,258.5C 313.914,257.346 314.747,257.513 315.5,259C 315.167,259.333 314.833,259.667 314.5,260C 306.784,260.199 299.118,260.699 291.5,261.5C 291.984,260.219 291.317,259.219 289.5,258.5C 289.5,257.833 289.167,257.5 288.5,257.5C 288.5,256.833 288.167,256.5 287.5,256.5C 287.5,255.833 287.167,255.5 286.5,255.5C 283.5,251.833 280.167,248.5 276.5,245.5C 275.496,244.317 274.662,242.984 274,241.5C 272.845,248.286 271.511,254.953 270,261.5C 265.263,260.531 260.43,260.197 255.5,260.5C 257.504,244.816 260.004,229.482 263,214.5C 268.072,213.529 273.238,213.195 278.5,213.5C 277.061,218.398 277.561,223.064 280,227.5C 284.551,224.071 288.718,220.904 292.5,218C 291.66,216.334 292.16,216.167 294,217.5C 295.167,216.333 296.333,215.167 297.5,214C 305.188,213.169 312.855,213.335 320.5,214.5C 313.857,218.492 307.524,222.826 301.5,227.5 Z M 276.5,229.5 C 276.337,227.143 276.503,224.81 277,222.5C 277.251,224.433 277.751,226.266 278.5,228C 277.956,228.717 277.289,229.217 276.5,229.5 Z"/></g>
<g><path style="opacity:1" fill="#050406" d="M 345.5,213.5 C 345.5,215.167 345.5,216.833 345.5,218.5C 344.778,218.918 344.278,219.584 344,220.5C 342.491,230.894 340.658,241.228 338.5,251.5C 339.396,253.801 339.562,256.134 339,258.5C 338.667,257.167 338.333,255.833 338,254.5C 337.505,256.473 337.338,258.473 337.5,260.5C 332.238,260.195 327.072,260.529 322,261.5C 320.369,259.519 320.535,257.519 322.5,255.5C 322.167,254.833 321.833,254.167 321.5,253.5C 324.813,240.32 327.479,226.987 329.5,213.5C 334.833,213.5 340.167,213.5 345.5,213.5 Z"/></g>
<g><path style="opacity:0.004" fill="#000000" d="M 250.5,217.5 C 251.833,218.167 251.833,218.167 250.5,217.5 Z"/></g>
<g><path style="opacity:1" fill="#0b66aa" d="M 175.5,224.5 C 170.265,226.45 164.598,227.117 158.5,226.5C 156.941,236.188 155.274,245.855 153.5,255.5C 152.005,255.415 151.005,256.081 150.5,257.5C 146.893,258.489 143.226,258.823 139.5,258.5C 140.481,247.322 141.981,236.322 144,225.5C 137.581,224.687 131.081,224.187 124.5,224C 127.167,221.333 129.833,218.667 132.5,216C 148.844,215.167 165.177,215.334 181.5,216.5C 179.066,218.921 177.066,221.588 175.5,224.5 Z"/></g>
<g><path style="opacity:0.004" fill="#000000" d="M 180.5,220.5 C 181.833,221.167 181.833,221.167 180.5,220.5 Z"/></g>
<g><path style="opacity:0.004" fill="#000000" d="M 345.5,221.5 C 345.5,222.5 345.5,223.5 345.5,224.5C 344.167,223.5 344.167,222.5 345.5,221.5 Z"/></g>
<g><path style="opacity:1" fill="#0c64a7" d="M 35.5,257.5 C 24.8455,258.405 14.1788,258.572 3.5,258C 6.35878,255.923 8.69212,253.423 10.5,250.5C 16.1376,249.67 21.8042,249.17 27.5,249C 29.5503,248.584 30.8836,247.417 31.5,245.5C 32.1217,244.373 32.955,243.373 34,242.5C 36.0658,232.871 37.8991,223.204 39.5,213.5C 43.6268,213.213 47.7934,212.88 52,212.5C 53.5,213 55,213.5 56.5,214C 54.4569,216.117 54.1235,218.45 55.5,221C 52.9769,228.284 51.1436,235.784 50,243.5C 47.2233,250.446 42.39,255.113 35.5,257.5 Z"/></g>
<g><path style="opacity:0.02" fill="#333366" d="M 110.5,224.5 C 111.833,225.167 111.833,225.167 110.5,224.5 Z"/></g>
<g><path style="opacity:0.004" fill="#000000" d="M 188.5,226.5 C 187.833,227.167 187.833,227.167 188.5,226.5 Z"/></g>
<g><path style="opacity:0.01" fill="#000000" d="M 205.5,227.5 C 206.552,227.351 207.552,227.517 208.5,228C 207.251,228.74 206.251,228.573 205.5,227.5 Z"/></g>
<g><path style="opacity:0.008" fill="#000000" d="M 301.5,227.5 C 302.833,228.167 302.833,228.167 301.5,227.5 Z"/></g>
<g><path style="opacity:0.024" fill="#000000" d="M 205.5,229.5 C 206.833,230.167 206.833,230.167 205.5,229.5 Z"/></g>
<g><path style="opacity:1" fill="#195181" d="M 180.5,220.5 C 178.833,221.833 177.167,223.167 175.5,224.5C 177.066,221.588 179.066,218.921 181.5,216.5C 165.177,215.334 148.844,215.167 132.5,216C 129.833,218.667 127.167,221.333 124.5,224C 131.081,224.187 137.581,224.687 144,225.5C 141.981,236.322 140.481,247.322 139.5,258.5C 143.226,258.823 146.893,258.489 150.5,257.5C 151.005,256.081 152.005,255.415 153.5,255.5C 153.005,257.482 152.505,259.482 152,261.5C 146.928,260.529 141.762,260.195 136.5,260.5C 138.5,249.168 140.5,237.835 142.5,226.5C 135.159,226.666 127.826,226.5 120.5,226C 123.955,222.695 127.622,218.862 131.5,214.5C 150.158,213.334 168.824,213.167 187.5,214C 184.712,215.719 182.379,217.885 180.5,220.5 Z"/></g>
<g><path style="opacity:0.016" fill="#000000" d="M 293.5,232.5 C 294.833,233.167 294.833,233.167 293.5,232.5 Z"/></g>
<g><path style="opacity:0.012" fill="#000000" d="M 292.5,233.5 C 292.833,233.5 293.167,233.5 293.5,233.5C 293.315,234.17 292.981,234.17 292.5,233.5 Z"/></g>
<g><path style="opacity:0.004" fill="#000000" d="M 290.5,234.5 C 291.833,235.167 291.833,235.167 290.5,234.5 Z"/></g>
<g><path style="opacity:0.024" fill="#000000" d="M 290.5,236.5 C 291.833,237.167 291.833,237.167 290.5,236.5 Z"/></g>
<g><path style="opacity:0.008" fill="#000000" d="M 191.5,237.5 C 191.631,238.239 191.464,238.906 191,239.5C 190.308,238.563 190.475,237.897 191.5,237.5 Z"/></g>
<g><path style="opacity:0.889" fill="#184c7c" d="M 110.5,224.5 C 109.711,224.783 109.044,225.283 108.5,226C 98.5056,226.5 88.5056,226.666 78.5,226.5C 78.5,227.833 78.5,229.167 78.5,230.5C 90.5046,230.333 102.505,230.5 114.5,231C 114.833,231.333 115.167,231.667 115.5,232C 111.973,234.362 108.973,237.196 106.5,240.5C 105.711,240.783 105.044,241.283 104.5,242C 94.8391,242.5 85.1724,242.666 75.5,242.5C 75.5,244.167 75.5,245.833 75.5,247.5C 88.5171,247.168 101.517,247.501 114.5,248.5C 110.706,252.129 107.04,255.962 103.5,260C 88.1703,260.5 72.837,260.667 57.5,260.5C 59.4374,245.24 62.1041,230.24 65.5,215.5C 82.5141,213.816 99.8475,212.816 117.5,212.5C 118.72,212.887 119.387,213.72 119.5,215C 116.318,218.015 113.318,221.181 110.5,224.5 Z"/></g>
<g><path style="opacity:0.035" fill="#1c3955" d="M 106.5,240.5 C 107.833,241.167 107.833,241.167 106.5,240.5 Z"/></g>
<g><path style="opacity:0.004" fill="#000000" d="M 295.5,240.5 C 296.833,241.167 296.833,241.167 295.5,240.5 Z"/></g>
<g><path style="opacity:0.039" fill="#000000" d="M 298.5,243.5 C 299.833,244.167 299.833,244.167 298.5,243.5 Z"/></g>
<g><path style="opacity:0.004" fill="#000000" d="M 276.5,245.5 C 275.833,246.167 275.833,246.167 276.5,245.5 Z"/></g>
<g><path style="opacity:1" fill="#0b68ae" d="M 65.5,215.5 C 66.6948,215.322 67.8615,214.989 69,214.5C 84.4791,215.144 99.9791,215.811 115.5,216.5C 113.35,219.151 111.017,221.651 108.5,224C 98.5,224.333 88.5,224.667 78.5,225C 76.1944,226.793 75.8611,228.96 77.5,231.5C 88.8187,232.332 100.152,232.832 111.5,233C 108.728,234.86 106.395,237.194 104.5,240C 94.8333,240.333 85.1667,240.667 75.5,241C 73.2936,243.209 72.9602,245.709 74.5,248.5C 86.4861,249.333 98.4861,249.833 110.5,250C 107.983,252.349 105.65,254.849 103.5,257.5C 88.8485,258.499 74.1818,258.833 59.5,258.5C 60.8824,251.92 61.7157,245.253 62,238.5C 64.0814,232.54 65.5814,226.373 66.5,220C 65.8524,218.56 65.5191,217.06 65.5,215.5 Z"/></g>
<g><path style="opacity:1" fill="#1d5283" d="M 31.5,245.5 C 30.8836,247.417 29.5503,248.584 27.5,249C 21.8042,249.17 16.1376,249.67 10.5,250.5C 8.69212,253.423 6.35878,255.923 3.5,258C 14.1788,258.572 24.8455,258.405 35.5,257.5C 33.1234,258.887 30.4568,259.721 27.5,260C 18.1726,260.5 8.83928,260.666 -0.5,260.5C -0.5,260.167 -0.5,259.833 -0.5,259.5C 0.166667,259.5 0.5,259.167 0.5,258.5C 3.99467,254.839 7.66134,251.339 11.5,248C 18.2863,247.874 24.953,247.041 31.5,245.5 Z"/></g>
<g><path style="opacity:0.02" fill="#000000" d="M 306.5,250.5 C 307.833,251.167 307.833,251.167 306.5,250.5 Z"/></g>
<g><path style="opacity:0.02" fill="#000000" d="M 188.5,252.5 C 187.833,251.167 187.833,251.167 188.5,252.5 Z"/></g>
<g><path style="opacity:0.004" fill="#000000" d="M 154.5,252.5 C 155.833,253.167 155.833,253.167 154.5,252.5 Z"/></g>
<g><path style="opacity:0.013" fill="#000000" d="M 286.5,255.5 C 287.167,255.5 287.5,255.833 287.5,256.5C 288.167,256.5 288.5,256.833 288.5,257.5C 289.167,257.5 289.5,257.833 289.5,258.5C 287.732,259.507 286.399,258.841 285.5,256.5C 285.624,255.893 285.957,255.56 286.5,255.5 Z"/></g>
<g><path style="opacity:0.008" fill="#00807f" d="M -0.5,257.5 C 0.166667,257.5 0.5,257.833 0.5,258.5C 0.166667,258.167 -0.166667,257.833 -0.5,257.5 Z"/></g>
<g><path style="opacity:0.008" fill="#000000" d="M 241.5,257.5 C 242.833,258.167 242.833,258.167 241.5,257.5 Z"/></g>
<g><path style="opacity:0.008" fill="#000000" d="M 184.5,262.5 C 184.897,261.475 185.563,261.308 186.5,262C 185.906,262.464 185.239,262.631 184.5,262.5 Z"/></g>
<g><path style="opacity:0.937" fill="#193d63" d="M 270.5,278.5 C 270.918,277.778 271.584,277.278 272.5,277C 270.82,276.966 269.32,276.799 268,276.5C 267.794,278.936 266.627,280.602 264.5,281.5C 266.811,273.377 271.811,271.377 279.5,275.5C 279.167,276.167 278.833,276.833 278.5,277.5C 275.914,278.48 273.247,278.813 270.5,278.5 Z"/></g>
<g><path style="opacity:0.839" fill="#164e85" d="M 186.5,289.5 C 182.833,289.5 179.167,289.5 175.5,289.5C 175.514,285.826 175.514,282.493 175.5,279.5C 175.846,278.304 176.346,278.304 177,279.5C 176.43,277.307 176.764,275.307 178,273.5C 181.655,273.398 185.489,273.731 189.5,274.5C 189.5,275.833 189.5,277.167 189.5,278.5C 186.813,278.336 184.146,278.503 181.5,279C 183.473,279.495 185.473,279.662 187.5,279.5C 187.67,280.822 187.337,281.989 186.5,283C 178.526,284.151 178.526,284.984 186.5,285.5C 186.5,286.833 186.5,288.167 186.5,289.5 Z"/></g>
<g><path style="opacity:0.004" fill="#000000" d="M 74.5,279.5 C 75.8333,280.167 75.8333,280.167 74.5,279.5 Z"/></g>
<g><path style="opacity:0.004" fill="#000000" d="M 76.5,279.5 C 77.8333,280.167 77.8333,280.167 76.5,279.5 Z"/></g>
<g><path style="opacity:1" fill="#1d5892" d="M 96.5,289.5 C 95.1667,289.5 93.8333,289.5 92.5,289.5C 90.1667,285.5 87.8333,285.5 85.5,289.5C 84.1667,289.5 82.8333,289.5 81.5,289.5C 81.3893,288.883 81.056,288.383 80.5,288C 83.6961,283.636 86.6961,279.136 89.5,274.5C 92.2128,273.052 94.2128,273.719 95.5,276.5C 94.9183,280.439 95.585,284.273 97.5,288C 96.944,288.383 96.6107,288.883 96.5,289.5 Z"/></g>
<g><path style="opacity:0.792" fill="#19558c" d="M 217.5,289.5 C 215.833,289.5 214.167,289.5 212.5,289.5C 215.749,286.015 215.083,284.015 210.5,283.5C 210.675,285.621 210.341,287.621 209.5,289.5C 208.167,289.5 206.833,289.5 205.5,289.5C 205.196,288.85 204.863,288.183 204.5,287.5C 206.533,285.548 206.866,283.382 205.5,281C 207.181,279.055 207.848,277.055 207.5,275C 209.579,274.192 211.579,274.359 213.5,275.5C 212.359,276.425 212.359,277.259 213.5,278C 210.879,278.906 211.046,279.406 214,279.5C 214.833,279.167 215.667,278.833 216.5,278.5C 216.376,277.893 216.043,277.56 215.5,277.5C 216.704,273.048 218.704,272.548 221.5,276C 220.655,279.379 219.655,282.713 218.5,286C 218.645,286.772 218.978,287.439 219.5,288C 218.584,288.278 217.918,288.778 217.5,289.5 Z"/></g>
<g><path style="opacity:0.043" fill="#2e5d5c" d="M 215.5,277.5 C 214.833,278.167 214.833,278.167 215.5,277.5 Z"/></g>
<g><path style="opacity:0.969" fill="#17518d" d="M 236.5,289.5 C 232.833,289.5 229.167,289.5 225.5,289.5C 225.913,285.187 226.913,281.021 228.5,277C 228.355,276.228 228.022,275.561 227.5,275C 232.311,273.019 236.978,273.186 241.5,275.5C 241.167,276.167 240.833,276.833 240.5,277.5C 238.234,278.314 235.9,278.814 233.5,279C 235.608,279.36 237.608,280.027 239.5,281C 238.663,282.011 238.33,283.178 238.5,284.5C 236.131,284.149 233.797,283.982 231.5,284C 231.167,284.333 230.833,284.667 230.5,285C 232.81,285.497 235.143,285.663 237.5,285.5C 237.567,286.959 237.234,288.292 236.5,289.5 Z"/></g>
<g><path style="opacity:1" fill="#1e4e7e" d="M 71.5,289.5 C 70.1667,289.5 68.8333,289.5 67.5,289.5C 67.7375,286.788 67.7375,284.288 67.5,282C 69.994,279.607 69.3273,278.44 65.5,278.5C 65.3794,275.459 66.8794,273.792 70,273.5C 72.0548,274.692 74.0548,274.692 76,273.5C 77.2547,274.211 78.4214,275.044 79.5,276C 78.0448,278.016 76.0448,278.849 73.5,278.5C 72.7871,281.237 72.7871,283.904 73.5,286.5C 72.8075,287.518 72.1408,288.518 71.5,289.5 Z"/></g>
<g><path style="opacity:0.698" fill="#17538c" d="M 166.5,289.5 C 165.5,289.5 164.5,289.5 163.5,289.5C 162.655,287.238 161.322,286.571 159.5,287.5C 158.833,288.167 158.167,288.833 157.5,289.5C 156.167,289.5 154.833,289.5 153.5,289.5C 154.231,285.242 155.231,281.408 156.5,278C 155.182,275.622 156.016,274.455 159,274.5C 160.107,274.585 161.107,274.919 162,275.5C 164.047,281.911 164.881,281.744 164.5,275C 166.902,274.186 169.235,274.353 171.5,275.5C 169.584,279.675 167.918,284.342 166.5,289.5 Z M 159.5,287.5 C 158.379,285.911 158.546,284.244 160,282.5C 160.374,283.416 160.874,284.25 161.5,285C 160.244,285.417 159.577,286.25 159.5,287.5 Z"/></g>
<g><path style="opacity:0.027" fill="#24496d" d="M 163.5,276.5 C 164.833,277.167 164.833,277.167 163.5,276.5 Z"/></g>
<g><path style="opacity:0.878" fill="#15508c" d="M 258.5,282.5 C 257.711,282.783 257.044,283.283 256.5,284C 256.565,285.829 256.898,287.662 257.5,289.5C 255.833,289.5 254.167,289.5 252.5,289.5C 251.167,284.167 249.833,284.167 248.5,289.5C 247.167,289.5 245.833,289.5 244.5,289.5C 244.335,286.482 244.502,283.482 245,280.5C 245.333,280.833 245.667,281.167 246,281.5C 246.743,279.559 246.576,277.726 245.5,276C 250.2,272.788 254.867,272.788 259.5,276C 259.661,278.072 259.328,280.239 258.5,282.5 Z M 251.5,279.5 C 252.386,278.224 253.386,278.224 254.5,279.5C 253.575,280.562 252.575,280.562 251.5,279.5 Z"/></g>
<g><path style="opacity:0.008" fill="#00807f" d="M 258.5,282.5 C 259.833,283.167 259.833,283.167 258.5,282.5 Z"/></g>
<g><path style="opacity:0.969" fill="#1a558f" d="M 130.5,283.5 C 129.711,283.783 129.044,284.283 128.5,285C 131.226,285.182 133.893,285.682 136.5,286.5C 135.807,287.518 135.141,288.518 134.5,289.5C 131.167,289.5 127.833,289.5 124.5,289.5C 124.077,288.735 123.743,287.902 123.5,287C 124.667,282.833 125.833,278.667 127,274.5C 128.333,273.167 129.667,273.167 131,274.5C 130.564,277.582 130.398,280.582 130.5,283.5 Z"/></g>
<g><path style="opacity:0.004" fill="#1e1b43" d="M 130.5,283.5 C 131.873,283.343 133.207,283.51 134.5,284C 132.934,284.765 131.601,284.598 130.5,283.5 Z"/></g>
<g><path style="opacity:1" fill="#155896" d="M 270.5,278.5 C 272.265,279.461 274.265,279.795 276.5,279.5C 276.33,280.822 276.663,281.989 277.5,283C 274.629,283.118 271.962,283.784 269.5,285C 271.81,285.497 274.143,285.663 276.5,285.5C 276.567,286.959 276.234,288.292 275.5,289.5C 271.833,289.5 268.167,289.5 264.5,289.5C 264.043,286.976 264.043,284.309 264.5,281.5C 266.627,280.602 267.794,278.936 268,276.5C 269.32,276.799 270.82,276.966 272.5,277C 271.584,277.278 270.918,277.778 270.5,278.5 Z"/></g>
<g><path style="opacity:1" fill="#1a5a92" d="M 145.5,289.5 C 144.5,289.5 143.5,289.5 142.5,289.5C 142.5,288.833 142.167,288.5 141.5,288.5C 141.389,287.883 141.056,287.383 140.5,287C 142.107,282.289 144.107,277.789 146.5,273.5C 147.672,273.919 148.672,274.585 149.5,275.5C 148.732,280.358 147.399,285.024 145.5,289.5 Z"/></g>
<g><path style="opacity:0.986" fill="#1c518f" d="M 117.5,280.5 C 117.485,283.879 116.485,286.879 114.5,289.5C 111.833,289.5 109.167,289.5 106.5,289.5C 105.29,287.448 104.29,285.282 103.5,283C 104.077,280.863 104.41,278.696 104.5,276.5C 107.943,274.742 111.61,273.909 115.5,274C 118.5,275.525 119.167,277.692 117.5,280.5 Z M 110.5,279.5 C 109.962,281.117 109.629,282.784 109.5,284.5C 108.07,282.545 108.403,280.879 110.5,279.5 Z M 110.5,279.5 C 113.012,278.133 115.345,278.466 117.5,280.5C 115.05,280.702 112.717,280.369 110.5,279.5 Z"/></g>
<g><path style="opacity:0.008" fill="#145453" d="M 238.5,285.5 C 239.525,285.897 239.692,286.563 239,287.5C 238.536,286.906 238.369,286.239 238.5,285.5 Z"/></g>
<g><path style="opacity:0.012" fill="#545554" d="M 223.5,287.5 C 224.833,288.167 224.833,288.167 223.5,287.5 Z"/></g>
<g><path style="opacity:0.012" fill="#545554" d="M 141.5,288.5 C 141.5,288.833 141.5,289.167 141.5,289.5C 140.83,289.019 140.83,288.685 141.5,288.5 Z"/></g>
<g><path style="opacity:0.004" fill="#000000" d="M 239.5,289.5 C 238.833,288.167 238.833,288.167 239.5,289.5 Z"/></g>
</svg>
