<svg xmlns="http://www.w3.org/2000/svg" viewBox="0 0 481.19 243.84"><defs><style>.cls-1{fill:#606060;}.cls-2{font-size:16.28px;fill:#706f6f;font-family:Montserrat-Medium, Montserrat;font-weight:500;}.cls-3{letter-spacing:0.5em;}.cls-4{letter-spacing:0.48em;}.cls-5{letter-spacing:0.5em;}.cls-6{fill:#c79d6e;}</style></defs><g id="Capa_2" data-name="Capa 2"><g id="Capa_1-2" data-name="Capa 1"><path class="cls-1" d="M10.88,149.81v.11H16a19.15,19.15,0,0,1,14,5.76,20,20,0,0,1,5.87,14,19.43,19.43,0,0,1-5.87,14,19.39,19.39,0,0,1-14,5.87H10.88v20.36H0v-60ZM0,149.81H0Zm10.88,11v17.7H16a8.74,8.74,0,0,0,8.85-8.85,8.93,8.93,0,0,0-2.56-6.29A8.57,8.57,0,0,0,16,160.8Z"/><path class="cls-1" d="M130.71,209.84H118l-12.16-20.36h-1.6v20.36H93.39v-60h10.87v.11h5.12a19.17,19.17,0,0,1,14,5.76,20.07,20.07,0,0,1,5.86,14,20,20,0,0,1-11.73,18ZM104.26,178.5h5.12a8.74,8.74,0,0,0,8.85-8.85,8.93,8.93,0,0,0-2.56-6.29,8.59,8.59,0,0,0-6.29-2.56h-5.12Z"/><path class="cls-1" d="M248.94,157.17a31.1,31.1,0,0,1,9.28,22.39,30.29,30.29,0,0,1-5.65,18.13,12.46,12.46,0,0,0,5.54,1.17v10.88a22,22,0,0,1-13.54-4.05,31.44,31.44,0,0,1-18,5.54,31.67,31.67,0,1,1,22.39-54.06Zm-23,29.22c9,.1,14,2.24,17.81,4.79A20.52,20.52,0,0,0,241.26,165a20.26,20.26,0,0,0-14.71-6.19,20.79,20.79,0,0,0,0,41.58,19.08,19.08,0,0,0,7.89-1.59,23,23,0,0,0-8.64-1.39Z"/><path class="cls-1" d="M270.16,150.35l16.63,34.54,16.42-34.54h11.94L291.7,199.5l-4.91,10.34-5-10.34-23.56-49.15Zm-11.94,0h0Z"/><path class="cls-1" d="M402.3,209.84H389.61l-12.15-20.36h-1.6v20.36H365v-60h10.88v.11H381a19.14,19.14,0,0,1,14,5.76,20,20,0,0,1,5.87,14,20,20,0,0,1-11.73,18ZM375.86,178.5H381a8.74,8.74,0,0,0,8.85-8.85,9,9,0,0,0-2.56-6.29A8.6,8.6,0,0,0,381,160.8h-5.12Z"/><path class="cls-1" d="M418.13,149.81v60H407.25v-60Zm-10.88,0h0Z"/><polygon class="cls-1" points="57.36 174.34 75.46 209.84 86.79 209.84 62.16 159.84 57.15 149.6 52.24 159.94 28.68 209.84 40.44 209.84 57.36 174.34"/><polygon class="cls-1" points="165.1 174.34 183.2 209.84 194.53 209.84 169.9 159.84 164.89 149.6 159.98 159.94 136.42 209.84 148.18 209.84 165.1 174.34"/><polygon class="cls-1" points="328.76 174.34 346.86 209.84 358.19 209.84 333.56 159.84 328.55 149.6 323.64 159.94 300.08 209.84 311.84 209.84 328.76 174.34"/><polygon class="cls-1" points="451.76 174.34 469.86 209.84 481.19 209.84 456.56 159.84 451.55 149.6 446.64 159.94 423.08 209.84 434.84 209.84 451.76 174.34"/><text class="cls-2" transform="translate(81.24 239.56)"><tspan class="cls-3">BROKER &amp; SER</tspan><tspan class="cls-4" x="222.71" y="0">V</tspan><tspan class="cls-5" x="242.2" y="0">ICIO</tspan><tspan x="310.29" y="0">S</tspan></text><path class="cls-6" d="M350.74,97.05l38.62-38.63L350.74,19.79,318.11,52.42H293L240.59,0,188.17,52.42H163.08L130.45,19.79,91.82,58.42l38.63,38.63,32.63-32.63h25.09l52.42,52.42L293,64.42h25.1Zm0-60.29,21.65,21.66L350.74,80.08,329.08,58.42ZM130.45,80.08,108.79,58.42l21.66-21.66,21.66,21.66Z"/></g></g></svg>